<?xml version="1.0" encoding="UTF-8"?>
<svg clip-rule="evenodd" fill-rule="evenodd" stroke-linecap="round" stroke-linejoin="round" stroke-miterlimit="1.5" version="1.1" viewBox="0 0 40 40" xml:space="preserve" xmlns="http://www.w3.org/2000/svg"><rect width="39.987" height="39.987" fill="none"/><path d="m37.634 3.511c-0-0.585-0.475-1.06-1.06-1.06h-33.216c-0.585-0-1.06 0.475-1.06 1.06v33.215c-0 0.585 0.475 1.06 1.06 1.06h33.216c0.585 0 1.06-0.475 1.06-1.06v-33.215z" fill="#0c1727"/><path d="m4.535 5.198c-0.022 7e-3 -0.04 0.011-0.062 0.015-0.018 4e-3 -0.036 4e-3 -0.049 4e-3 -0.032 0-0.063-4e-3 -0.094-0.015s-0.058-0.026-0.085-0.045c-0.026-0.022-0.044-0.044-0.062-0.074-0.013-0.033-0.022-0.067-0.022-0.104 0-0.096 0.058-0.163 0.178-0.204 0.142-0.045 0.272-0.096 0.383-0.16 0.111-0.066 0.218-0.144 0.316-0.233 0.062-0.052 0.129-0.078 0.2-0.078 0.032 0 0.067 3e-3 0.098 0.015 0.032 0.014 0.063 0.029 0.089 0.052 0.027 0.022 0.049 0.048 0.067 0.077 0.014 0.026 0.022 0.06 0.022 0.093l-4e-3 2.112c0 0.148-0.089 0.222-0.267 0.222-0.183 0-0.272-0.074-0.272-0.222v-1.633c-0.071 0.037-0.142 0.07-0.214 0.1-0.066 0.026-0.142 0.052-0.222 0.078z" fill="#fff" fill-rule="nonzero"/><path d="m7.901 5.198c-0.022 7e-3 -0.04 0.011-0.062 0.015-0.018 4e-3 -0.036 4e-3 -0.049 4e-3 -0.031 0-0.062-4e-3 -0.093-0.015-0.032-0.011-0.058-0.026-0.085-0.045-0.027-0.022-0.045-0.044-0.062-0.074-0.014-0.033-0.023-0.067-0.023-0.104 0-0.096 0.058-0.163 0.178-0.204 0.143-0.045 0.272-0.096 0.383-0.16 0.112-0.066 0.219-0.144 0.317-0.233 0.062-0.052 0.129-0.078 0.2-0.078 0.031 0 0.067 3e-3 0.098 0.015 0.031 0.014 0.062 0.029 0.089 0.052 0.027 0.022 0.049 0.048 0.067 0.077 0.013 0.026 0.022 0.06 0.022 0.093l-4e-3 2.112c0 0.148-0.09 0.222-0.268 0.222-0.182 0-0.271-0.074-0.271-0.222v-1.633c-0.071 0.037-0.143 0.07-0.214 0.1-0.067 0.026-0.142 0.052-0.223 0.078z" fill="#fff" fill-rule="nonzero"/><path d="m11.571 4.307c0.338 0 0.623 0.138 0.855 0.409 0.209 0.252 0.316 0.545 0.316 0.879 0 0.174-0.031 0.341-0.094 0.497-0.062 0.156-0.142 0.293-0.249 0.408-0.107 0.119-0.232 0.208-0.374 0.279-0.143 0.067-0.294 0.1-0.454 0.1-0.165 0-0.316-0.033-0.459-0.1-0.142-0.071-0.267-0.16-0.374-0.279-0.107-0.115-0.187-0.252-0.249-0.408-0.063-0.156-0.089-0.323-0.089-0.497 0-0.171 0.026-0.326 0.075-0.475 0.054-0.145 0.134-0.282 0.236-0.404 0.112-0.13 0.241-0.23 0.388-0.301 0.142-0.07 0.302-0.108 0.472-0.108zm0.414 0.668c-0.125-0.144-0.263-0.215-0.414-0.215-0.085 0-0.17 0.022-0.245 0.067-0.076 0.045-0.143 0.104-0.196 0.182-0.058 0.078-0.103 0.163-0.138 0.267-0.031 0.1-0.049 0.204-0.049 0.319 0 0.111 0.018 0.215 0.049 0.315 0.031 0.101 0.076 0.19 0.133 0.264 0.058 0.078 0.125 0.137 0.201 0.182 0.075 0.044 0.156 0.067 0.245 0.067 0.084 0 0.169-0.023 0.245-0.067 0.075-0.045 0.142-0.104 0.196-0.182 0.057-0.074 0.102-0.163 0.133-0.264 0.036-0.1 0.049-0.204 0.049-0.315 0-0.249-0.071-0.453-0.209-0.62z" fill="#fff" fill-rule="nonzero"/><path d="m14.634 5.198c-0.022 7e-3 -0.04 0.011-0.062 0.015-0.018 4e-3 -0.036 4e-3 -0.049 4e-3 -0.031 0-0.062-4e-3 -0.093-0.015-0.032-0.011-0.058-0.026-0.085-0.045-0.027-0.022-0.045-0.044-0.062-0.074-0.014-0.033-0.023-0.067-0.023-0.104 0-0.096 0.058-0.163 0.179-0.204 0.142-0.045 0.271-0.096 0.382-0.16 0.112-0.066 0.219-0.144 0.317-0.233 0.062-0.052 0.129-0.078 0.2-0.078 0.031 0 0.067 3e-3 0.098 0.015 0.031 0.014 0.062 0.029 0.089 0.052 0.027 0.022 0.049 0.048 0.067 0.077 0.013 0.026 0.022 0.06 0.022 0.093l-4e-3 2.112c0 0.148-0.089 0.222-0.268 0.222-0.182 0-0.271-0.074-0.271-0.222v-1.633c-0.071 0.037-0.143 0.07-0.214 0.1-0.067 0.026-0.142 0.052-0.223 0.078z" fill="#fff" fill-rule="nonzero"/><path d="m18.304 4.307c0.338 0 0.623 0.138 0.855 0.409 0.209 0.252 0.316 0.545 0.316 0.879 0 0.174-0.031 0.341-0.094 0.497-0.062 0.156-0.142 0.293-0.249 0.408-0.107 0.119-0.232 0.208-0.374 0.279-0.143 0.067-0.294 0.1-0.454 0.1-0.165 0-0.316-0.033-0.459-0.1-0.142-0.071-0.267-0.16-0.374-0.279-0.107-0.115-0.187-0.252-0.249-0.408-0.063-0.156-0.089-0.323-0.089-0.497 0-0.171 0.026-0.326 0.075-0.475 0.054-0.145 0.134-0.282 0.236-0.404 0.112-0.13 0.241-0.23 0.388-0.301 0.142-0.07 0.303-0.108 0.472-0.108zm0.414 0.668c-0.125-0.144-0.263-0.215-0.414-0.215-0.085 0-0.169 0.022-0.245 0.067s-0.143 0.104-0.196 0.182c-0.058 0.078-0.102 0.163-0.138 0.267-0.031 0.1-0.049 0.204-0.049 0.319 0 0.111 0.018 0.215 0.049 0.315 0.031 0.101 0.076 0.19 0.133 0.264 0.058 0.078 0.125 0.137 0.201 0.182 0.076 0.044 0.156 0.067 0.245 0.067 0.084 0 0.169-0.023 0.245-0.067 0.075-0.045 0.142-0.104 0.196-0.182 0.057-0.074 0.102-0.163 0.133-0.264 0.036-0.1 0.049-0.204 0.049-0.315 0-0.249-0.071-0.453-0.209-0.62z" fill="#fff" fill-rule="nonzero"/><path d="m21.67 4.307c0.339 0 0.624 0.138 0.855 0.409 0.209 0.252 0.316 0.545 0.316 0.879 0 0.174-0.031 0.341-0.093 0.497s-0.143 0.293-0.25 0.408c-0.106 0.119-0.231 0.208-0.374 0.279-0.142 0.067-0.293 0.1-0.454 0.1-0.164 0-0.316-0.033-0.458-0.1-0.143-0.071-0.268-0.16-0.374-0.279-0.107-0.115-0.187-0.252-0.25-0.408-0.062-0.156-0.089-0.323-0.089-0.497 0-0.171 0.027-0.326 0.076-0.475 0.053-0.145 0.133-0.282 0.236-0.404 0.111-0.13 0.24-0.23 0.387-0.301 0.143-0.07 0.303-0.108 0.472-0.108zm0.414 0.668c-0.124-0.144-0.262-0.215-0.414-0.215-0.084 0-0.169 0.022-0.245 0.067-0.075 0.045-0.142 0.104-0.196 0.182-0.057 0.078-0.102 0.163-0.138 0.267-0.031 0.1-0.049 0.204-0.049 0.319 0 0.111 0.018 0.215 0.049 0.315 0.032 0.101 0.076 0.19 0.134 0.264 0.058 0.078 0.125 0.137 0.2 0.182 0.076 0.044 0.156 0.067 0.245 0.067 0.085 0 0.169-0.023 0.245-0.067 0.076-0.045 0.143-0.104 0.196-0.182 0.058-0.074 0.103-0.163 0.134-0.264 0.035-0.1 0.049-0.204 0.049-0.315 0-0.249-0.072-0.453-0.21-0.62z" fill="#fff" fill-rule="nonzero"/><path d="m24.734 5.198c-0.022 7e-3 -0.04 0.011-0.062 0.015-0.018 4e-3 -0.036 4e-3 -0.049 4e-3 -0.031 0-0.063-4e-3 -0.094-0.015s-0.058-0.026-0.084-0.045c-0.027-0.022-0.045-0.044-0.063-0.074-0.013-0.033-0.022-0.067-0.022-0.104 0-0.096 0.058-0.163 0.178-0.204 0.143-0.045 0.272-0.096 0.383-0.16 0.111-0.066 0.218-0.144 0.316-0.233 0.063-0.052 0.129-0.078 0.201-0.078 0.031 0 0.066 3e-3 0.098 0.015 0.031 0.014 0.062 0.029 0.089 0.052 0.026 0.022 0.049 0.048 0.066 0.077 0.014 0.026 0.023 0.06 0.023 0.093l-5e-3 2.112c0 0.148-0.089 0.222-0.267 0.222-0.183 0-0.272-0.074-0.272-0.222v-1.633c-0.071 0.037-0.142 0.07-0.213 0.1-0.067 0.026-0.143 0.052-0.223 0.078z" fill="#fff" fill-rule="nonzero"/><path d="m28.403 4.307c0.339 0 0.624 0.138 0.855 0.409 0.21 0.252 0.316 0.545 0.316 0.879 0 0.174-0.031 0.341-0.093 0.497s-0.143 0.293-0.249 0.408c-0.107 0.119-0.232 0.208-0.374 0.279-0.143 0.067-0.294 0.1-0.455 0.1-0.164 0-0.316-0.033-0.458-0.1-0.143-0.071-0.267-0.16-0.374-0.279-0.107-0.115-0.187-0.252-0.25-0.408-0.062-0.156-0.089-0.323-0.089-0.497 0-0.171 0.027-0.326 0.076-0.475 0.053-0.145 0.134-0.282 0.236-0.404 0.111-0.13 0.24-0.23 0.387-0.301 0.143-0.07 0.303-0.108 0.472-0.108zm0.414 0.668c-0.124-0.144-0.262-0.215-0.414-0.215-0.084 0-0.169 0.022-0.245 0.067-0.075 0.045-0.142 0.104-0.195 0.182-0.058 0.078-0.103 0.163-0.139 0.267-0.031 0.1-0.049 0.204-0.049 0.319 0 0.111 0.018 0.215 0.049 0.315 0.032 0.101 0.076 0.19 0.134 0.264 0.058 0.078 0.125 0.137 0.2 0.182 0.076 0.044 0.156 0.067 0.245 0.067 0.085 0 0.17-0.023 0.245-0.067 0.076-0.045 0.143-0.104 0.196-0.182 0.058-0.074 0.103-0.163 0.134-0.264 0.035-0.1 0.049-0.204 0.049-0.315 0-0.249-0.072-0.453-0.21-0.62z" fill="#fff" fill-rule="nonzero"/><path d="m31.77 4.307c0.338 0 0.623 0.138 0.855 0.409 0.209 0.252 0.316 0.545 0.316 0.879 0 0.174-0.031 0.341-0.094 0.497-0.062 0.156-0.142 0.293-0.249 0.408-0.107 0.119-0.231 0.208-0.374 0.279-0.142 0.067-0.294 0.1-0.454 0.1-0.165 0-0.316-0.033-0.459-0.1-0.142-0.071-0.267-0.16-0.374-0.279-0.107-0.115-0.187-0.252-0.249-0.408-0.063-0.156-0.089-0.323-0.089-0.497 0-0.171 0.026-0.326 0.075-0.475 0.054-0.145 0.134-0.282 0.236-0.404 0.112-0.13 0.241-0.23 0.388-0.301 0.142-0.07 0.303-0.108 0.472-0.108zm0.414 0.668c-0.125-0.144-0.263-0.215-0.414-0.215-0.085 0-0.169 0.022-0.245 0.067s-0.143 0.104-0.196 0.182c-0.058 0.078-0.102 0.163-0.138 0.267-0.031 0.1-0.049 0.204-0.049 0.319 0 0.111 0.018 0.215 0.049 0.315 0.031 0.101 0.076 0.19 0.134 0.264 0.057 0.078 0.124 0.137 0.2 0.182 0.076 0.044 0.156 0.067 0.245 0.067 0.084 0 0.169-0.023 0.245-0.067 0.075-0.045 0.142-0.104 0.196-0.182 0.058-0.074 0.102-0.163 0.133-0.264 0.036-0.1 0.049-0.204 0.049-0.315 0-0.249-0.071-0.453-0.209-0.62z" fill="#fff" fill-rule="nonzero"/><path d="m34.834 5.198c-0.023 7e-3 -0.04 0.011-0.063 0.015-0.018 4e-3 -0.035 4e-3 -0.049 4e-3 -0.031 0-0.062-4e-3 -0.093-0.015s-0.058-0.026-0.085-0.045c-0.027-0.022-0.044-0.044-0.062-0.074-0.014-0.033-0.022-0.067-0.022-0.104 0-0.096 0.057-0.163 0.178-0.204 0.142-0.045 0.271-0.096 0.383-0.16 0.111-0.066 0.218-0.144 0.316-0.233 0.062-0.052 0.129-0.078 0.2-0.078 0.031 0 0.067 3e-3 0.098 0.015 0.031 0.014 0.062 0.029 0.089 0.052 0.027 0.022 0.049 0.048 0.067 0.077 0.013 0.026 0.022 0.06 0.022 0.093l-4e-3 2.112c0 0.148-0.089 0.222-0.267 0.222-0.183 0-0.272-0.074-0.272-0.222v-1.633c-0.071 0.037-0.143 0.07-0.214 0.1-0.067 0.026-0.142 0.052-0.222 0.078z" fill="#fff" fill-rule="nonzero"/><path d="m4.838 9.132c0.338 0 0.623 0.138 0.855 0.408 0.209 0.253 0.316 0.546 0.316 0.88 0 0.174-0.031 0.341-0.094 0.497-0.062 0.156-0.142 0.293-0.249 0.408-0.107 0.119-0.232 0.208-0.374 0.279-0.143 0.066-0.294 0.1-0.454 0.1-0.165 0-0.317-0.034-0.459-0.1-0.142-0.071-0.267-0.16-0.374-0.279-0.107-0.115-0.187-0.252-0.249-0.408-0.063-0.156-0.089-0.323-0.089-0.497 0-0.171 0.026-0.327 0.075-0.475 0.054-0.145 0.134-0.282 0.236-0.405 0.112-0.129 0.241-0.23 0.388-0.3 0.142-0.071 0.302-0.108 0.472-0.108zm0.414 0.668c-0.125-0.145-0.263-0.215-0.414-0.215-0.085 0-0.17 0.022-0.245 0.067-0.076 0.044-0.143 0.104-0.196 0.182-0.058 0.078-0.103 0.163-0.138 0.267-0.031 0.1-0.049 0.204-0.049 0.319 0 0.111 0.018 0.215 0.049 0.315s0.075 0.19 0.133 0.264c0.058 0.078 0.125 0.137 0.201 0.182 0.075 0.044 0.156 0.066 0.245 0.066 0.084 0 0.169-0.022 0.245-0.066 0.075-0.045 0.142-0.104 0.195-0.182 0.058-0.074 0.103-0.164 0.134-0.264 0.036-0.1 0.049-0.204 0.049-0.315 0-0.249-0.071-0.453-0.209-0.62z" fill="#fff" fill-rule="nonzero"/><path d="m7.901 10.023c-0.022 7e-3 -0.04 0.011-0.062 0.015-0.018 3e-3 -0.036 3e-3 -0.049 3e-3 -0.031 0-0.062-3e-3 -0.093-0.014-0.032-0.012-0.058-0.026-0.085-0.045-0.027-0.022-0.045-0.045-0.062-0.074-0.014-0.034-0.023-0.067-0.023-0.104 0-0.097 0.058-0.163 0.178-0.204 0.143-0.045 0.272-0.097 0.383-0.16 0.112-0.067 0.219-0.144 0.317-0.234 0.062-0.051 0.129-0.077 0.2-0.077 0.031 0 0.067 3e-3 0.098 0.014 0.031 0.015 0.062 0.03 0.089 0.052 0.027 0.023 0.049 0.049 0.067 0.078 0.013 0.026 0.022 0.06 0.022 0.093l-4e-3 2.111c0 0.149-0.09 0.223-0.268 0.223-0.182 0-0.271-0.074-0.271-0.223v-1.632c-0.071 0.037-0.143 0.07-0.214 0.1-0.067 0.026-0.142 0.052-0.223 0.078z" fill="#fff" fill-rule="nonzero"/><path d="m31.467 10.023c-0.022 7e-3 -0.04 0.011-0.062 0.015-0.018 3e-3 -0.036 3e-3 -0.049 3e-3 -0.031 0-0.063-3e-3 -0.094-0.014-0.031-0.012-0.058-0.026-0.084-0.045-0.027-0.022-0.045-0.045-0.063-0.074-0.013-0.034-0.022-0.067-0.022-0.104 0-0.097 0.058-0.163 0.178-0.204 0.143-0.045 0.272-0.097 0.383-0.16 0.111-0.067 0.218-0.144 0.316-0.234 0.063-0.051 0.129-0.077 0.201-0.077 0.031 0 0.066 3e-3 0.098 0.014 0.031 0.015 0.062 0.03 0.089 0.052 0.026 0.023 0.049 0.049 0.066 0.078 0.014 0.026 0.023 0.06 0.023 0.093l-5e-3 2.111c0 0.149-0.089 0.223-0.267 0.223-0.182 0-0.272-0.074-0.272-0.223v-1.632c-0.071 0.037-0.142 0.07-0.213 0.1-0.067 0.026-0.143 0.052-0.223 0.078z" fill="#fff" fill-rule="nonzero"/><path d="m35.136 9.132c0.339 0 0.624 0.138 0.855 0.408 0.21 0.253 0.316 0.546 0.316 0.88 0 0.174-0.031 0.341-0.093 0.497s-0.143 0.293-0.249 0.408c-0.107 0.119-0.232 0.208-0.374 0.279-0.143 0.066-0.294 0.1-0.455 0.1-0.164 0-0.316-0.034-0.458-0.1-0.143-0.071-0.267-0.16-0.374-0.279-0.107-0.115-0.187-0.252-0.25-0.408-0.062-0.156-0.089-0.323-0.089-0.497 0-0.171 0.027-0.327 0.076-0.475 0.053-0.145 0.134-0.282 0.236-0.405 0.111-0.129 0.24-0.23 0.387-0.3 0.143-0.071 0.303-0.108 0.472-0.108zm0.414 0.668c-0.124-0.145-0.262-0.215-0.414-0.215-0.084 0-0.169 0.022-0.245 0.067-0.075 0.044-0.142 0.104-0.195 0.182-0.058 0.078-0.103 0.163-0.138 0.267-0.032 0.1-0.049 0.204-0.049 0.319 0 0.111 0.017 0.215 0.049 0.315 0.031 0.1 0.075 0.19 0.133 0.264 0.058 0.078 0.125 0.137 0.2 0.182 0.076 0.044 0.156 0.066 0.245 0.066 0.085 0 0.17-0.022 0.245-0.066 0.076-0.045 0.143-0.104 0.196-0.182 0.058-0.074 0.103-0.164 0.134-0.264 0.035-0.1 0.049-0.204 0.049-0.315 0-0.249-0.071-0.453-0.21-0.62z" fill="#fff" fill-rule="nonzero"/><path d="m4.535 14.848c-0.022 7e-3 -0.04 0.011-0.062 0.014-0.018 4e-3 -0.036 4e-3 -0.049 4e-3 -0.032 0-0.063-4e-3 -0.094-0.015s-0.058-0.026-0.085-0.044c-0.026-0.023-0.044-0.045-0.062-0.075-0.013-0.033-0.022-0.066-0.022-0.103 0-0.097 0.058-0.164 0.178-0.204 0.142-0.045 0.272-0.097 0.383-0.16 0.111-0.067 0.218-0.145 0.316-0.234 0.062-0.052 0.129-0.078 0.2-0.078 0.032 0 0.067 4e-3 0.098 0.015 0.032 0.015 0.063 0.03 0.089 0.052 0.027 0.022 0.049 0.048 0.067 0.078 0.014 0.026 0.022 0.059 0.022 0.093l-4e-3 2.111c0 0.149-0.089 0.223-0.267 0.223-0.183 0-0.272-0.074-0.272-0.223v-1.633c-0.071 0.038-0.142 0.071-0.214 0.101-0.066 0.026-0.142 0.052-0.222 0.078z" fill="#fff" fill-rule="nonzero"/><path d="m34.834 14.848c-0.023 7e-3 -0.04 0.011-0.063 0.014-0.018 4e-3 -0.035 4e-3 -0.049 4e-3 -0.031 0-0.062-4e-3 -0.093-0.015s-0.058-0.026-0.085-0.044c-0.027-0.023-0.044-0.045-0.062-0.075-0.014-0.033-0.022-0.066-0.022-0.103 0-0.097 0.057-0.164 0.178-0.204 0.142-0.045 0.271-0.097 0.383-0.16 0.111-0.067 0.218-0.145 0.316-0.234 0.062-0.052 0.129-0.078 0.2-0.078 0.031 0 0.067 4e-3 0.098 0.015 0.031 0.015 0.062 0.03 0.089 0.052s0.049 0.048 0.067 0.078c0.013 0.026 0.022 0.059 0.022 0.093l-4e-3 2.111c0 0.149-0.089 0.223-0.267 0.223-0.183 0-0.272-0.074-0.272-0.223v-1.633c-0.071 0.038-0.143 0.071-0.214 0.101-0.067 0.026-0.142 0.052-0.222 0.078z" fill="#fff" fill-rule="nonzero"/><path d="m4.838 18.782c0.338 0 0.623 0.137 0.855 0.408 0.209 0.252 0.316 0.545 0.316 0.879 0 0.175-0.031 0.342-0.094 0.497-0.062 0.156-0.142 0.294-0.249 0.409-0.107 0.118-0.232 0.207-0.374 0.278-0.143 0.067-0.294 0.1-0.454 0.1-0.165 0-0.317-0.033-0.459-0.1-0.142-0.071-0.267-0.16-0.374-0.278-0.107-0.115-0.187-0.253-0.249-0.409-0.063-0.155-0.089-0.322-0.089-0.497 0-0.17 0.026-0.326 0.075-0.475 0.054-0.144 0.134-0.282 0.236-0.404 0.112-0.13 0.241-0.23 0.388-0.301 0.142-0.07 0.302-0.107 0.472-0.107zm0.414 0.668c-0.125-0.145-0.263-0.216-0.414-0.216-0.085 0-0.17 0.023-0.245 0.067-0.076 0.045-0.143 0.104-0.196 0.182-0.058 0.078-0.103 0.163-0.138 0.267-0.031 0.1-0.049 0.204-0.049 0.319 0 0.112 0.018 0.215 0.049 0.316 0.031 0.1 0.075 0.189 0.133 0.263 0.058 0.078 0.125 0.137 0.201 0.182 0.075 0.044 0.156 0.067 0.245 0.067 0.084 0 0.169-0.023 0.245-0.067 0.075-0.045 0.142-0.104 0.195-0.182 0.058-0.074 0.103-0.163 0.134-0.263 0.036-0.101 0.049-0.204 0.049-0.316 0-0.248-0.071-0.452-0.209-0.619z" fill="#fff" fill-rule="nonzero"/><path d="m34.834 19.672c-0.023 8e-3 -0.04 0.011-0.063 0.015-0.018 4e-3 -0.035 4e-3 -0.049 4e-3 -0.031 0-0.062-4e-3 -0.093-0.015s-0.058-0.026-0.085-0.045c-0.027-0.022-0.044-0.044-0.062-0.074-0.014-0.033-0.022-0.067-0.022-0.104 0-0.096 0.057-0.163 0.178-0.204 0.142-0.044 0.271-0.096 0.383-0.159 0.111-0.067 0.218-0.145 0.316-0.234 0.062-0.052 0.129-0.078 0.2-0.078 0.031 0 0.067 4e-3 0.098 0.015 0.031 0.015 0.062 0.029 0.089 0.052 0.027 0.022 0.049 0.048 0.067 0.078 0.013 0.026 0.022 0.059 0.022 0.092l-4e-3 2.112c0 0.148-0.089 0.222-0.267 0.222-0.183 0-0.272-0.074-0.272-0.222v-1.633c-0.071 0.037-0.143 0.071-0.214 0.1-0.067 0.026-0.142 0.052-0.222 0.078z" fill="#fff" fill-rule="nonzero"/><path d="m4.838 23.606c0.338 0 0.623 0.138 0.855 0.409 0.209 0.252 0.316 0.545 0.316 0.879 0 0.174-0.031 0.341-0.094 0.497-0.062 0.156-0.142 0.293-0.249 0.408-0.107 0.119-0.232 0.208-0.374 0.279-0.143 0.067-0.294 0.1-0.454 0.1-0.165 0-0.317-0.033-0.459-0.1-0.142-0.071-0.267-0.16-0.374-0.279-0.107-0.115-0.187-0.252-0.249-0.408-0.063-0.156-0.089-0.323-0.089-0.497 0-0.171 0.026-0.326 0.075-0.475 0.054-0.145 0.134-0.282 0.236-0.404 0.112-0.13 0.241-0.23 0.388-0.301 0.142-0.07 0.302-0.108 0.472-0.108zm0.414 0.668c-0.125-0.144-0.263-0.215-0.414-0.215-0.085 0-0.17 0.022-0.245 0.067-0.076 0.044-0.143 0.104-0.196 0.182-0.058 0.078-0.103 0.163-0.138 0.267-0.031 0.1-0.049 0.204-0.049 0.319 0 0.111 0.018 0.215 0.049 0.315 0.031 0.101 0.075 0.19 0.133 0.264 0.058 0.078 0.125 0.137 0.201 0.182 0.075 0.044 0.156 0.067 0.245 0.067 0.084 0 0.169-0.023 0.245-0.067 0.075-0.045 0.142-0.104 0.195-0.182 0.058-0.074 0.103-0.163 0.134-0.264 0.036-0.1 0.049-0.204 0.049-0.315 0-0.249-0.071-0.453-0.209-0.62z" fill="#fff" fill-rule="nonzero"/><path d="m35.136 23.606c0.339 0 0.624 0.138 0.855 0.409 0.21 0.252 0.316 0.545 0.316 0.879 0 0.174-0.031 0.341-0.093 0.497s-0.143 0.293-0.249 0.408c-0.107 0.119-0.232 0.208-0.374 0.279-0.143 0.067-0.294 0.1-0.455 0.1-0.164 0-0.316-0.033-0.458-0.1-0.143-0.071-0.267-0.16-0.374-0.279-0.107-0.115-0.187-0.252-0.25-0.408-0.062-0.156-0.089-0.323-0.089-0.497 0-0.171 0.027-0.326 0.076-0.475 0.053-0.145 0.134-0.282 0.236-0.404 0.111-0.13 0.24-0.23 0.387-0.301 0.143-0.07 0.303-0.108 0.472-0.108zm0.414 0.668c-0.124-0.144-0.262-0.215-0.414-0.215-0.084 0-0.169 0.022-0.245 0.067-0.075 0.044-0.142 0.104-0.195 0.182-0.058 0.078-0.103 0.163-0.138 0.267-0.032 0.1-0.049 0.204-0.049 0.319 0 0.111 0.017 0.215 0.049 0.315 0.031 0.101 0.075 0.19 0.133 0.264 0.058 0.078 0.125 0.137 0.2 0.182 0.076 0.044 0.156 0.067 0.245 0.067 0.085 0 0.17-0.023 0.245-0.067 0.076-0.045 0.143-0.104 0.196-0.182 0.058-0.074 0.103-0.163 0.134-0.264 0.035-0.1 0.049-0.204 0.049-0.315 0-0.249-0.071-0.453-0.21-0.62z" fill="#fff" fill-rule="nonzero"/><path d="m4.838 28.431c0.338 0 0.623 0.137 0.855 0.408 0.209 0.253 0.316 0.546 0.316 0.88 0 0.174-0.031 0.341-0.094 0.497-0.062 0.156-0.142 0.293-0.249 0.408-0.107 0.119-0.232 0.208-0.374 0.278-0.143 0.067-0.294 0.101-0.454 0.101-0.165 0-0.317-0.034-0.459-0.101-0.142-0.07-0.267-0.159-0.374-0.278-0.107-0.115-0.187-0.252-0.249-0.408-0.063-0.156-0.089-0.323-0.089-0.497 0-0.171 0.026-0.327 0.075-0.475 0.054-0.145 0.134-0.282 0.236-0.405 0.112-0.13 0.241-0.23 0.388-0.3 0.142-0.071 0.302-0.108 0.472-0.108zm0.414 0.668c-0.125-0.145-0.263-0.215-0.414-0.215-0.085 0-0.17 0.022-0.245 0.067-0.076 0.044-0.143 0.104-0.196 0.181-0.058 0.078-0.103 0.164-0.138 0.268-0.031 0.1-0.049 0.204-0.049 0.319 0 0.111 0.018 0.215 0.049 0.315s0.075 0.189 0.133 0.264c0.058 0.078 0.125 0.137 0.201 0.181 0.075 0.045 0.156 0.067 0.245 0.067 0.084 0 0.169-0.022 0.245-0.067 0.075-0.044 0.142-0.103 0.195-0.181 0.058-0.075 0.103-0.164 0.134-0.264 0.036-0.1 0.049-0.204 0.049-0.315 0-0.249-0.071-0.453-0.209-0.62z" fill="#fff" fill-rule="nonzero"/><path d="m7.901 29.322c-0.022 7e-3 -0.04 0.011-0.062 0.015-0.018 3e-3 -0.036 3e-3 -0.049 3e-3 -0.031 0-0.062-3e-3 -0.093-0.015-0.032-0.011-0.058-0.026-0.085-0.044-0.027-0.022-0.045-0.045-0.062-0.074-0.014-0.034-0.023-0.067-0.023-0.104 0-0.097 0.058-0.163 0.178-0.204 0.143-0.045 0.272-0.097 0.383-0.16 0.112-0.067 0.219-0.145 0.317-0.234 0.062-0.052 0.129-0.078 0.2-0.078 0.031 0 0.067 4e-3 0.098 0.015 0.031 0.015 0.062 0.03 0.089 0.052 0.027 0.023 0.049 0.048 0.067 0.078 0.013 0.026 0.022 0.06 0.022 0.093l-4e-3 2.111c0 0.149-0.09 0.223-0.268 0.223-0.182 0-0.271-0.074-0.271-0.223v-1.632c-0.071 0.037-0.143 0.07-0.214 0.1-0.067 0.026-0.142 0.052-0.223 0.078z" fill="#fff" fill-rule="nonzero"/><path d="m35.136 28.431c0.339 0 0.624 0.137 0.855 0.408 0.21 0.253 0.316 0.546 0.316 0.88 0 0.174-0.031 0.341-0.093 0.497s-0.143 0.293-0.249 0.408c-0.107 0.119-0.232 0.208-0.374 0.278-0.143 0.067-0.294 0.101-0.455 0.101-0.164 0-0.316-0.034-0.458-0.101-0.143-0.07-0.267-0.159-0.374-0.278-0.107-0.115-0.187-0.252-0.25-0.408-0.062-0.156-0.089-0.323-0.089-0.497 0-0.171 0.027-0.327 0.076-0.475 0.053-0.145 0.134-0.282 0.236-0.405 0.111-0.13 0.24-0.23 0.387-0.3 0.143-0.071 0.303-0.108 0.472-0.108zm0.414 0.668c-0.124-0.145-0.262-0.215-0.414-0.215-0.084 0-0.169 0.022-0.245 0.067-0.075 0.044-0.142 0.104-0.195 0.181-0.058 0.078-0.103 0.164-0.138 0.268-0.032 0.1-0.049 0.204-0.049 0.319 0 0.111 0.017 0.215 0.049 0.315 0.031 0.1 0.075 0.189 0.133 0.264 0.058 0.078 0.125 0.137 0.2 0.181 0.076 0.045 0.156 0.067 0.245 0.067 0.085 0 0.17-0.022 0.245-0.067 0.076-0.044 0.143-0.103 0.196-0.181 0.058-0.075 0.103-0.164 0.134-0.264 0.035-0.1 0.049-0.204 0.049-0.315 0-0.249-0.071-0.453-0.21-0.62z" fill="#fff" fill-rule="nonzero"/><path d="m4.535 34.146c-0.022 8e-3 -0.04 0.012-0.062 0.015-0.018 4e-3 -0.036 4e-3 -0.049 4e-3 -0.032 0-0.063-4e-3 -0.094-0.015s-0.058-0.026-0.085-0.044c-0.026-0.023-0.044-0.045-0.062-0.075-0.013-0.033-0.022-0.066-0.022-0.104 0-0.096 0.058-0.163 0.178-0.204 0.142-0.044 0.272-0.096 0.383-0.159 0.111-0.067 0.218-0.145 0.316-0.234 0.062-0.052 0.129-0.078 0.2-0.078 0.032 0 0.067 4e-3 0.098 0.015 0.032 0.015 0.063 0.03 0.089 0.052 0.027 0.022 0.049 0.048 0.067 0.078 0.014 0.026 0.022 0.059 0.022 0.093l-4e-3 2.111c0 0.148-0.089 0.223-0.267 0.223-0.183 0-0.272-0.075-0.272-0.223v-1.633c-0.071 0.037-0.142 0.071-0.214 0.1-0.066 0.026-0.142 0.052-0.222 0.078z" fill="#fff" fill-rule="nonzero"/><path d="m7.901 34.146c-0.022 8e-3 -0.04 0.012-0.062 0.015-0.018 4e-3 -0.036 4e-3 -0.049 4e-3 -0.031 0-0.062-4e-3 -0.093-0.015-0.032-0.011-0.058-0.026-0.085-0.044-0.027-0.023-0.045-0.045-0.062-0.075-0.014-0.033-0.023-0.066-0.023-0.104 0-0.096 0.058-0.163 0.178-0.204 0.143-0.044 0.272-0.096 0.383-0.159 0.112-0.067 0.219-0.145 0.317-0.234 0.062-0.052 0.129-0.078 0.2-0.078 0.031 0 0.067 4e-3 0.098 0.015 0.031 0.015 0.062 0.03 0.089 0.052s0.049 0.048 0.067 0.078c0.013 0.026 0.022 0.059 0.022 0.093l-4e-3 2.111c0 0.148-0.09 0.223-0.268 0.223-0.182 0-0.271-0.075-0.271-0.223v-1.633c-0.071 0.037-0.143 0.071-0.214 0.1-0.067 0.026-0.142 0.052-0.223 0.078z" fill="#fff" fill-rule="nonzero"/><path d="m11.571 33.256c0.338 0 0.623 0.137 0.855 0.408 0.209 0.252 0.316 0.546 0.316 0.879 0 0.175-0.031 0.342-0.094 0.498-0.062 0.156-0.142 0.293-0.249 0.408-0.107 0.119-0.232 0.208-0.374 0.278-0.143 0.067-0.294 0.1-0.454 0.1-0.165 0-0.316-0.033-0.459-0.1-0.142-0.07-0.267-0.159-0.374-0.278-0.107-0.115-0.187-0.252-0.249-0.408-0.063-0.156-0.089-0.323-0.089-0.498 0-0.17 0.026-0.326 0.075-0.475 0.054-0.144 0.134-0.282 0.236-0.404 0.112-0.13 0.241-0.23 0.388-0.301 0.142-0.07 0.302-0.107 0.472-0.107zm0.414 0.668c-0.125-0.145-0.263-0.215-0.414-0.215-0.085 0-0.17 0.022-0.245 0.066-0.076 0.045-0.143 0.104-0.196 0.182-0.058 0.078-0.103 0.163-0.138 0.267-0.031 0.101-0.049 0.204-0.049 0.319 0 0.112 0.018 0.216 0.049 0.316s0.076 0.189 0.133 0.263c0.058 0.078 0.125 0.138 0.201 0.182 0.075 0.045 0.156 0.067 0.245 0.067 0.084 0 0.169-0.022 0.245-0.067 0.075-0.044 0.142-0.104 0.196-0.182 0.057-0.074 0.102-0.163 0.133-0.263 0.036-0.1 0.049-0.204 0.049-0.316 0-0.248-0.071-0.452-0.209-0.619z" fill="#fff" fill-rule="nonzero"/><path d="m14.634 34.146c-0.022 8e-3 -0.04 0.012-0.062 0.015-0.018 4e-3 -0.036 4e-3 -0.049 4e-3 -0.031 0-0.062-4e-3 -0.093-0.015-0.032-0.011-0.058-0.026-0.085-0.044-0.027-0.023-0.045-0.045-0.062-0.075-0.014-0.033-0.023-0.066-0.023-0.104 0-0.096 0.058-0.163 0.179-0.204 0.142-0.044 0.271-0.096 0.382-0.159 0.112-0.067 0.219-0.145 0.317-0.234 0.062-0.052 0.129-0.078 0.2-0.078 0.031 0 0.067 4e-3 0.098 0.015 0.031 0.015 0.062 0.03 0.089 0.052s0.049 0.048 0.067 0.078c0.013 0.026 0.022 0.059 0.022 0.093l-4e-3 2.111c0 0.148-0.089 0.223-0.268 0.223-0.182 0-0.271-0.075-0.271-0.223v-1.633c-0.071 0.037-0.143 0.071-0.214 0.1-0.067 0.026-0.142 0.052-0.223 0.078z" fill="#fff" fill-rule="nonzero"/><path d="m18.304 33.256c0.338 0 0.623 0.137 0.855 0.408 0.209 0.252 0.316 0.546 0.316 0.879 0 0.175-0.031 0.342-0.094 0.498-0.062 0.156-0.142 0.293-0.249 0.408-0.107 0.119-0.232 0.208-0.374 0.278-0.143 0.067-0.294 0.1-0.454 0.1-0.165 0-0.316-0.033-0.459-0.1-0.142-0.07-0.267-0.159-0.374-0.278-0.107-0.115-0.187-0.252-0.249-0.408-0.063-0.156-0.089-0.323-0.089-0.498 0-0.17 0.026-0.326 0.075-0.475 0.054-0.144 0.134-0.282 0.236-0.404 0.112-0.13 0.241-0.23 0.388-0.301 0.142-0.07 0.303-0.107 0.472-0.107zm0.414 0.668c-0.125-0.145-0.263-0.215-0.414-0.215-0.085 0-0.169 0.022-0.245 0.066-0.076 0.045-0.143 0.104-0.196 0.182-0.058 0.078-0.102 0.163-0.138 0.267-0.031 0.101-0.049 0.204-0.049 0.319 0 0.112 0.018 0.216 0.049 0.316s0.076 0.189 0.133 0.263c0.058 0.078 0.125 0.138 0.201 0.182 0.076 0.045 0.156 0.067 0.245 0.067 0.084 0 0.169-0.022 0.245-0.067 0.075-0.044 0.142-0.104 0.196-0.182 0.057-0.074 0.102-0.163 0.133-0.263 0.036-0.1 0.049-0.204 0.049-0.316 0-0.248-0.071-0.452-0.209-0.619z" fill="#fff" fill-rule="nonzero"/><path d="m21.67 33.256c0.339 0 0.624 0.137 0.855 0.408 0.209 0.252 0.316 0.546 0.316 0.879 0 0.175-0.031 0.342-0.093 0.498s-0.143 0.293-0.25 0.408c-0.106 0.119-0.231 0.208-0.374 0.278-0.142 0.067-0.293 0.1-0.454 0.1-0.164 0-0.316-0.033-0.458-0.1-0.143-0.07-0.268-0.159-0.374-0.278-0.107-0.115-0.187-0.252-0.25-0.408-0.062-0.156-0.089-0.323-0.089-0.498 0-0.17 0.027-0.326 0.076-0.475 0.053-0.144 0.133-0.282 0.236-0.404 0.111-0.13 0.24-0.23 0.387-0.301 0.143-0.07 0.303-0.107 0.472-0.107zm0.414 0.668c-0.124-0.145-0.262-0.215-0.414-0.215-0.084 0-0.169 0.022-0.245 0.066-0.075 0.045-0.142 0.104-0.196 0.182-0.057 0.078-0.102 0.163-0.138 0.267-0.031 0.101-0.049 0.204-0.049 0.319 0 0.112 0.018 0.216 0.049 0.316 0.032 0.1 0.076 0.189 0.134 0.263 0.058 0.078 0.125 0.138 0.2 0.182 0.076 0.045 0.156 0.067 0.245 0.067 0.085 0 0.169-0.022 0.245-0.067 0.076-0.044 0.143-0.104 0.196-0.182 0.058-0.074 0.103-0.163 0.134-0.263 0.035-0.1 0.049-0.204 0.049-0.316 0-0.248-0.072-0.452-0.21-0.619z" fill="#fff" fill-rule="nonzero"/><path d="m24.734 34.146c-0.022 8e-3 -0.04 0.012-0.062 0.015-0.018 4e-3 -0.036 4e-3 -0.049 4e-3 -0.031 0-0.063-4e-3 -0.094-0.015s-0.058-0.026-0.084-0.044c-0.027-0.023-0.045-0.045-0.063-0.075-0.013-0.033-0.022-0.066-0.022-0.104 0-0.096 0.058-0.163 0.178-0.204 0.143-0.044 0.272-0.096 0.383-0.159 0.111-0.067 0.218-0.145 0.316-0.234 0.063-0.052 0.129-0.078 0.201-0.078 0.031 0 0.066 4e-3 0.098 0.015 0.031 0.015 0.062 0.03 0.089 0.052 0.026 0.022 0.049 0.048 0.066 0.078 0.014 0.026 0.023 0.059 0.023 0.093l-5e-3 2.111c0 0.148-0.089 0.223-0.267 0.223-0.183 0-0.272-0.075-0.272-0.223v-1.633c-0.071 0.037-0.142 0.071-0.213 0.1-0.067 0.026-0.143 0.052-0.223 0.078z" fill="#fff" fill-rule="nonzero"/><path d="m28.403 33.256c0.339 0 0.624 0.137 0.855 0.408 0.21 0.252 0.316 0.546 0.316 0.879 0 0.175-0.031 0.342-0.093 0.498s-0.143 0.293-0.249 0.408c-0.107 0.119-0.232 0.208-0.374 0.278-0.143 0.067-0.294 0.1-0.455 0.1-0.164 0-0.316-0.033-0.458-0.1-0.143-0.07-0.267-0.159-0.374-0.278-0.107-0.115-0.187-0.252-0.25-0.408-0.062-0.156-0.089-0.323-0.089-0.498 0-0.17 0.027-0.326 0.076-0.475 0.053-0.144 0.134-0.282 0.236-0.404 0.111-0.13 0.24-0.23 0.387-0.301 0.143-0.07 0.303-0.107 0.472-0.107zm0.414 0.668c-0.124-0.145-0.262-0.215-0.414-0.215-0.084 0-0.169 0.022-0.245 0.066-0.075 0.045-0.142 0.104-0.195 0.182-0.058 0.078-0.103 0.163-0.139 0.267-0.031 0.101-0.049 0.204-0.049 0.319 0 0.112 0.018 0.216 0.049 0.316 0.032 0.1 0.076 0.189 0.134 0.263 0.058 0.078 0.125 0.138 0.2 0.182 0.076 0.045 0.156 0.067 0.245 0.067 0.085 0 0.17-0.022 0.245-0.067 0.076-0.044 0.143-0.104 0.196-0.182 0.058-0.074 0.103-0.163 0.134-0.263 0.035-0.1 0.049-0.204 0.049-0.316 0-0.248-0.072-0.452-0.21-0.619z" fill="#fff" fill-rule="nonzero"/><rect x="11.286" y="11.386" width="2.247" height="2.247" fill="#077fbb"/><rect x="9.115" y="11.386" width="2.247" height="2.247" fill="#ff0056"/><rect x="13.458" y="11.386" width="2.247" height="2.247" fill="#00abbf"/><rect x="15.629" y="11.386" width="2.247" height="2.247" fill="#06efec"/><rect x="17.801" y="11.386" width="2.247" height="2.247" fill="#0ee4e4"/><rect x="19.973" y="11.386" width="2.247" height="2.247" fill="#00bcc2"/><rect x="22.144" y="11.386" width="2.247" height="2.247" fill="#0db1bb"/><rect x="24.316" y="11.386" width="2.247" height="2.247" fill="#821a65"/><rect x="26.487" y="11.386" width="2.247" height="2.247" fill="#3e0345"/><rect x="11.286" y="9.214" width="2.247" height="2.247" fill="#09679a"/><rect x="13.458" y="9.214" width="2.247" height="2.247" fill="#08a0b7"/><rect x="15.629" y="9.214" width="2.247" height="2.247" fill="#07e5e8"/><rect x="17.801" y="9.214" width="2.247" height="2.247" fill="#0fe7e4"/><rect x="19.973" y="9.214" width="2.247" height="2.247" fill="#05c1c2"/><rect x="22.144" y="9.214" width="2.247" height="2.247" fill="#09acbd"/><rect x="15.629" y="7.042" width="2.247" height="2.247" fill="#0cc0cf"/><rect x="17.801" y="7.042" width="2.247" height="2.247" fill="#0ac5ca"/><rect x="19.973" y="7.042" width="2.247" height="2.247" fill="#07afb2"/><rect x="22.144" y="7.042" width="2.247" height="2.247" fill="#06b4bc"/><rect x="24.316" y="9.214" width="2.247" height="2.247" fill="#048db2"/><rect x="26.487" y="9.214" width="2.247" height="2.247" fill="#3e064f"/><rect x="28.659" y="11.386" width="2.247" height="2.247" fill="#30033a"/><rect x="11.286" y="13.557" width="2.247" height="2.247" fill="#a04e7e"/><rect x="9.115" y="13.557" width="2.247" height="2.247" fill="#ff0957"/><rect x="13.458" y="13.557" width="2.247" height="2.247" fill="#01a8bb"/><rect x="15.629" y="13.557" width="2.247" height="2.247" fill="#11e8eb"/><rect x="17.801" y="13.557" width="2.247" height="2.247" fill="#16e2e3"/><rect x="19.973" y="13.557" width="2.247" height="2.247" fill="#04b4c1"/><rect x="22.144" y="13.557" width="2.247" height="2.247" fill="#861c67"/><rect x="24.316" y="13.557" width="2.247" height="2.247" fill="#83155e"/><rect x="26.487" y="13.557" width="2.247" height="2.247" fill="#430e54"/><rect x="28.659" y="13.557" width="2.247" height="2.247" fill="#3f0349"/><rect x="11.286" y="15.729" width="2.247" height="2.247" fill="#ff215c"/><rect x="9.115" y="15.729" width="2.247" height="2.247" fill="#ff0e5f"/><rect x="13.458" y="15.729" width="2.247" height="2.247" fill="#ff795c"/><rect x="15.629" y="15.729" width="2.247" height="2.247" fill="#0feaee"/><rect x="17.801" y="15.729" width="2.247" height="2.247" fill="#89dde7"/><rect x="19.973" y="15.729" width="2.247" height="2.247" fill="#ff2c66"/><rect x="22.144" y="15.729" width="2.247" height="2.247" fill="#870d64"/><rect x="24.316" y="15.729" width="2.247" height="2.247" fill="#ff2360"/><rect x="26.487" y="15.729" width="2.247" height="2.247" fill="#a70069"/><rect x="28.659" y="15.729" width="2.247" height="2.247" fill="#450041"/><rect x="11.286" y="17.9" width="2.247" height="2.247" fill="#ff205e"/><rect x="9.115" y="17.9" width="2.247" height="2.247" fill="#ff095a"/><rect x="13.458" y="17.9" width="2.247" height="2.247" fill="#ff755e"/><rect x="15.629" y="17.9" width="2.247" height="2.247" fill="#ff3565"/><rect x="17.801" y="17.9" width="2.247" height="2.247" fill="#fe2e62"/><rect x="19.973" y="17.9" width="2.247" height="2.247" fill="#fe2b62"/><rect x="22.144" y="17.9" width="2.247" height="2.247" fill="#81025b"/><rect x="24.316" y="17.9" width="2.247" height="2.247" fill="#ff225f"/><rect x="26.487" y="17.9" width="2.247" height="2.247" fill="#9c0061"/><rect x="28.659" y="17.9" width="2.247" height="2.247" fill="#3c0038"/><rect x="11.286" y="20.072" width="2.247" height="2.247" fill="#fe195c"/><rect x="9.115" y="20.072" width="2.247" height="2.247" fill="#ff304d"/><rect x="13.458" y="20.072" width="2.247" height="2.247" fill="#ff6d5b"/><rect x="15.629" y="20.072" width="2.247" height="2.247" fill="#ffab6f"/><rect x="17.801" y="20.072" width="2.247" height="2.247" fill="#ff7277"/><rect x="19.973" y="20.072" width="2.247" height="2.247" fill="#fe2460"/><rect x="22.144" y="20.072" width="2.247" height="2.247" fill="#ff205d"/><rect x="24.316" y="20.072" width="2.247" height="2.247" fill="#fe1c5b"/><rect x="26.487" y="20.072" width="2.247" height="2.247" fill="#ff0660"/><rect x="28.659" y="20.072" width="2.247" height="2.247" fill="#510035"/><rect x="11.286" y="22.244" width="2.247" height="2.247" fill="#ff8921"/><rect x="9.115" y="22.244" width="2.247" height="2.247" fill="#ff015b"/><rect x="13.458" y="22.244" width="2.247" height="2.247" fill="#ffc36d"/><rect x="15.629" y="22.244" width="2.247" height="2.247" fill="#ffcd67"/><rect x="17.801" y="22.244" width="2.247" height="2.247" fill="#ffc37d"/><rect x="19.973" y="22.244" width="2.247" height="2.247" fill="#ff8c7c"/><rect x="22.144" y="22.244" width="2.247" height="2.247" fill="#ff1560"/><rect x="24.316" y="22.244" width="2.247" height="2.247" fill="#fd5957"/><rect x="26.487" y="22.244" width="2.247" height="2.247" fill="#fe2a5d"/><rect x="28.659" y="22.244" width="2.247" height="2.247" fill="#fa0256"/><rect x="30.831" y="15.729" width="2.247" height="2.247" fill="#470042"/><rect x="30.831" y="17.9" width="2.247" height="2.247" fill="#450043"/><rect x="30.831" y="20.072" width="2.247" height="2.247" fill="#40033f"/><rect x="30.831" y="22.244" width="2.247" height="2.247" fill="#f1015a"/><rect x="11.286" y="24.415" width="2.247" height="2.247" fill="#f78403"/><rect x="9.115" y="24.415" width="2.247" height="2.247" fill="#f98200"/><rect x="13.458" y="24.415" width="2.247" height="2.247" fill="#fbbd4c"/><rect x="15.629" y="24.415" width="2.247" height="2.247" fill="#fcc352"/><rect x="17.801" y="24.415" width="2.247" height="2.247" fill="#fcc03b"/><rect x="19.973" y="24.415" width="2.247" height="2.247" fill="#fcbf02"/><rect x="22.144" y="24.415" width="2.247" height="2.247" fill="#e6bb48"/><rect x="24.316" y="24.415" width="2.247" height="2.247" fill="#22e2e7"/><rect x="26.487" y="24.415" width="2.247" height="2.247" fill="#ff125a"/><rect x="28.659" y="24.415" width="2.247" height="2.247" fill="#fe6e18"/><rect x="11.286" y="26.587" width="2.247" height="2.247" fill="#0c9bdf"/><rect x="9.115" y="26.587" width="2.247" height="2.247" fill="#f37400"/><rect x="13.458" y="26.587" width="2.247" height="2.247" fill="#18e3e9"/><rect x="15.629" y="26.587" width="2.247" height="2.247" fill="#feb439"/><rect x="17.801" y="26.587" width="2.247" height="2.247" fill="#ffb00e"/><rect x="19.973" y="26.587" width="2.247" height="2.247" fill="#ffac00"/><rect x="22.144" y="26.587" width="2.247" height="2.247" fill="#16e0e0"/><rect x="24.316" y="26.587" width="2.247" height="2.247" fill="#18e2f0"/><rect x="26.487" y="26.587" width="2.247" height="2.247" fill="#0792e3"/><rect x="28.659" y="26.587" width="2.247" height="2.247" fill="#d37424"/><rect x="11.286" y="28.758" width="2.247" height="2.247" fill="#0073ce"/><rect x="13.458" y="28.758" width="2.247" height="2.247" fill="#03a9e5"/><rect x="15.629" y="28.758" width="2.247" height="2.247" fill="#f7a000"/><rect x="17.801" y="28.758" width="2.247" height="2.247" fill="#71c996"/><rect x="19.973" y="28.758" width="2.247" height="2.247" fill="#13cde2"/><rect x="22.144" y="28.758" width="2.247" height="2.247" fill="#0296d4"/><rect x="24.316" y="28.758" width="2.247" height="2.247" fill="#0080d1"/><rect x="26.487" y="28.758" width="2.247" height="2.247" fill="#0069c9"/><rect x="15.629" y="30.93" width="2.247" height="2.247" fill="#09b2f5"/><rect x="17.801" y="30.93" width="2.247" height="2.247" fill="#09a8ea"/><rect x="19.973" y="30.93" width="2.247" height="2.247" fill="#098fe8"/><rect x="22.144" y="30.93" width="2.247" height="2.247" fill="#077dd7"/><rect x="6.943" y="15.729" width="2.247" height="2.247" fill="#bb0653"/><rect x="6.943" y="17.9" width="2.247" height="2.247" fill="#c90255"/><rect x="6.943" y="20.072" width="2.247" height="2.247" fill="#ce015c"/><rect x="6.943" y="22.244" width="2.247" height="2.247" fill="#cb0658"/><circle cx="20.126" cy="20.136" r="13.166" fill="none" stroke="#fff" stroke-width="1.91px"/><circle cx="20.088" cy="20.133" r="11.579" fill="none" stroke="#0c1727" stroke-width="1.91px"/><path d="m31.403 27.981 7.315 6.892s1.499 1.449-0.276 3.338c-1.874 1.993-3.288 0.677-3.288 0.677l-7.427-7.012z" fill="#0c1727" stroke="#fff" stroke-width="1.31px"/><path d="m31.446 30.369-2.731-2.576-1.223 1.296 2.731 2.576z" fill="#0c1727"/><path d="m22.646 12.325c1.275 0.337 2.754 1.331 3.528 2.484" fill="none" stroke="#fff" stroke-width="1.31px"/></svg>
