<?xml version="1.0" encoding="UTF-8" standalone="no"?>
<!DOCTYPE svg PUBLIC "-//W3C//DTD SVG 1.1//EN" "http://www.w3.org/Graphics/SVG/1.1/DTD/svg11.dtd">
<svg width="100%" height="100%" viewBox="0 0 16 16" version="1.1" xmlns="http://www.w3.org/2000/svg" xmlns:xlink="http://www.w3.org/1999/xlink" xml:space="preserve" xmlns:serif="http://www.serif.com/" style="fill-rule:evenodd;clip-rule:evenodd;stroke-linejoin:round;stroke-miterlimit:2;">
    <g transform="matrix(1,0,0,1,-0.276497,-0.0768049)">
        <path d="M12.754,13.838C12.413,14.06 12.006,14.19 11.569,14.19C11.569,14.19 3.709,14.19 3.709,14.19C2.51,14.19 1.536,13.216 1.536,12.017L1.536,4.156C1.536,2.957 2.51,1.984 3.709,1.984L11.569,1.984C12.768,1.984 13.742,2.957 13.742,4.156L13.742,4.205C12.894,3.258 11.69,2.626 10.323,2.529C9.459,2.468 8.63,2.628 7.892,2.96L6.139,2.96L6.139,4.263C5.813,4.637 5.541,5.06 5.335,5.521L5.335,2.96L3.709,2.96C3.048,2.96 2.512,3.496 2.512,4.156L2.512,5.7L5.259,5.7C5.156,5.957 5.073,6.226 5.013,6.503L2.512,6.503L2.512,9.44L5.247,9.44C5.459,9.98 5.762,10.476 6.139,10.91L6.139,13.213L9.149,13.213L9.149,12.59C9.3,12.615 9.454,12.633 9.609,12.644C9.724,12.652 9.839,12.656 9.952,12.656L9.952,13.213L11.569,13.213C11.761,13.213 11.942,13.168 12.103,13.088L12.754,13.838ZM5.335,13.213L3.709,13.213C3.048,13.213 2.512,12.677 2.512,12.017L2.512,10.243L5.335,10.243L5.335,13.213ZM8.514,6.503C8.871,6.026 9.455,5.735 10.093,5.78C10.64,5.818 11.113,6.096 11.417,6.503L9.952,6.503L9.952,9.398C9.914,9.398 9.877,9.396 9.838,9.393C9.59,9.376 9.358,9.309 9.149,9.203L9.149,6.503L8.514,6.503Z" style="fill:rgb(108,112,126);"/>
    </g>
    <g transform="matrix(0.997523,0.0703414,-0.0703414,0.997523,2.43164,-0.428576)">
        <path d="M9.888,10.9C9.899,10.912 9.91,10.924 9.921,10.936L12.57,13.584C12.815,13.83 13.214,13.83 13.459,13.584C13.705,13.338 13.705,12.94 13.459,12.694L10.857,10.092C11.486,9.375 11.868,8.436 11.868,7.408C11.868,5.162 10.044,3.338 7.798,3.338C5.552,3.338 3.728,5.162 3.728,7.408C3.728,9.654 5.552,11.478 7.798,11.478C8.562,11.478 9.277,11.267 9.888,10.9ZM7.798,4.597C9.35,4.597 10.61,5.856 10.61,7.408C10.61,8.96 9.35,10.219 7.798,10.219C6.247,10.219 4.987,8.96 4.987,7.408C4.987,5.856 6.247,4.597 7.798,4.597Z" style="fill:rgb(108,112,126);"/>
    </g>
</svg>
