<?xml version="1.0" encoding="UTF-8" standalone="no"?>
<svg
   width="16"
   height="16"
   viewBox="0 0 16 16"
   fill="none"
   version="1.1"
   id="svg6"
   sodipodi:docname="column_dark.svg"
   inkscape:version="1.2.2 (b0a8486541, 2022-12-01)"
   xmlns:inkscape="http://www.inkscape.org/namespaces/inkscape"
   xmlns:sodipodi="http://sodipodi.sourceforge.net/DTD/sodipodi-0.dtd"
   xmlns="http://www.w3.org/2000/svg"
   xmlns:svg="http://www.w3.org/2000/svg">
  <defs
     id="defs10" />
  <sodipodi:namedview
     id="namedview8"
     pagecolor="#ffffff"
     bordercolor="#000000"
     borderopacity="0.25"
     inkscape:showpageshadow="2"
     inkscape:pageopacity="0.0"
     inkscape:pagecheckerboard="0"
     inkscape:deskcolor="#d1d1d1"
     showgrid="false"
     inkscape:zoom="64.1875"
     inkscape:cx="7.2755599"
     inkscape:cy="8"
     inkscape:window-width="3840"
     inkscape:window-height="2051"
     inkscape:window-x="3840"
     inkscape:window-y="0"
     inkscape:window-maximized="1"
     inkscape:current-layer="svg6" />
  <path
     fill-rule="evenodd"
     clip-rule="evenodd"
     d="m 15,12 c 0,1.10457 -0.89543,2 -2,2 H 3 C 1.8954,14 1,13.10457 1,12 V 4 C 1,2.8954 1.8954,2 3,2 h 10 c 1.10457,0 2,0.8954 2,2 z m -2,1 H 11 V 3 h 2 c 0.55228,0 1,0.4477 1,1 v 8 c 0,0.55228 -0.44772,1 -1,1 z m -3,0 V 3 H 3 C 2.4477,3 2,3.4477 2,4 v 8 c 0,0.55228 0.4477,1 1,1 z"
     fill="#ced0d6"
     id="path2" />
  <path
     d="m 14,12 c 0,0.55228 -0.44772,1 -1,1 H 11 V 3 h 2 c 0.55228,0 1,0.4477 1,1 z"
     fill="#43454a"
     id="path4" />
</svg>
