<?xml version="1.0" encoding="UTF-8" standalone="no"?>
<svg
   width="16"
   height="16"
   viewBox="0 0 16 16"
   fill="none"
   version="1.1"
   id="svg10047"
   sodipodi:docname="sarif_dark.svg"
   inkscape:version="1.2.2 (b0a8486541, 2022-12-01)"
   xmlns:inkscape="http://www.inkscape.org/namespaces/inkscape"
   xmlns:sodipodi="http://sodipodi.sourceforge.net/DTD/sodipodi-0.dtd"
   xmlns="http://www.w3.org/2000/svg"
   xmlns:svg="http://www.w3.org/2000/svg">
  <defs
     id="defs10051" />
  <sodipodi:namedview
     id="namedview10049"
     pagecolor="#ffffff"
     bordercolor="#000000"
     borderopacity="0.25"
     inkscape:showpageshadow="2"
     inkscape:pageopacity="0.0"
     inkscape:pagecheckerboard="0"
     inkscape:deskcolor="#d1d1d1"
     showgrid="false"
     inkscape:zoom="64.1875"
     inkscape:cx="8.630964"
     inkscape:cy="10.056475"
     inkscape:window-width="3840"
     inkscape:window-height="2051"
     inkscape:window-x="3840"
     inkscape:window-y="0"
     inkscape:window-maximized="1"
     inkscape:current-layer="svg10047" />
  <g
     aria-label="CHW"
     transform="scale(0.6575353,1.5208309)"
     id="text10224"
     style="font-weight:bold;font-stretch:semi-condensed;font-size:8.1767px;font-family:'DejaVu Sans';-inkscape-font-specification:'DejaVu Sans Bold Semi-Condensed';fill:#ced0d6;stroke-width:0.153314;stroke-linejoin:round;stroke-miterlimit:2.7;fill-opacity:1">
    <path
       d="M 7.1919562,7.9093251 Q 6.8086735,8.1289142 6.3934504,8.240705 5.9822199,8.3524958 5.5350567,8.3524958 q -1.3414898,0 -2.1240255,-0.8304461 -0.7825357,-0.8344385 -0.7825357,-2.2597714 0,-1.4293255 0.7825357,-2.2597715 0.7825357,-0.8344386 2.1240255,-0.8344386 0.4471632,0 0.8583937,0.1117908 0.4152231,0.1117908 0.7985058,0.3313799 V 3.8449304 Q 6.8046809,3.5534758 6.4293832,3.4177298 6.058078,3.2819838 5.6468475,3.2819838 q -0.7426104,0 -1.1658185,0.5270139 -0.4232081,0.5270138 -0.4232081,1.4532806 0,0.9222742 0.4232081,1.449288 0.4232081,0.5270139 1.1658185,0.5270139 0.4112305,0 0.7825357,-0.135746 0.3752977,-0.135746 0.762573,-0.4272006 z"
       id="path12222"
       style="fill:#ced0d6;fill-opacity:1" />
    <path
       d="M 8.3338194,2.2758665 H 9.719227 v 2.271749 h 2.040182 v -2.271749 h 1.381415 v 5.960846 H 11.759409 V 5.7094415 H 9.719227 v 2.527271 H 8.3338194 Z"
       id="path12224"
       style="fill:#ced0d6;fill-opacity:1" />
    <path
       d="m 14.03515,2.2758665 h 1.32552 l 0.926267,4.3318941 0.922274,-4.3318941 h 1.333505 l 0.918281,4.3318941 0.926267,-4.3318941 h 1.317535 l -1.265632,5.960846 H 18.842155 L 17.867978,3.7051919 16.905779,8.2367125 h -1.597012 z"
       id="path12226"
       style="fill:#ced0d6;fill-opacity:1" />
  </g>
</svg>
