<?xml version="1.0" encoding="UTF-8" standalone="no"?>
<!-- Copyright 2000-2023 JetBrains s.r.o. and contributors. Use of this source code is governed by the Apache 2.0 license. -->

<svg
   width="16"
   height="16"
   viewBox="0 0 16 16"
   fill="none"
   version="1.1"
   id="svg380"
   sodipodi:docname="transpose_dark.svg"
   inkscape:version="1.2.2 (b0a8486541, 2022-12-01)"
   xmlns:inkscape="http://www.inkscape.org/namespaces/inkscape"
   xmlns:sodipodi="http://sodipodi.sourceforge.net/DTD/sodipodi-0.dtd"
   xmlns="http://www.w3.org/2000/svg"
   xmlns:svg="http://www.w3.org/2000/svg">
  <defs
     id="defs384">
    <inkscape:path-effect
       effect="fillet_chamfer"
       id="path-effect1031"
       is_visible="true"
       lpeversion="1"
       nodesatellites_param="F,0,0,1,0,0.3,0,1 @ F,0,0,1,0,0.3,0,1 @ F,0,0,1,0,0.3,0,1 @ F,0,0,1,0,0.3,0,1 @ F,0,0,1,0,0.3,0,1 @ F,0,0,1,0,0.3,0,1 @ F,0,0,1,0,0.3,0,1 @ F,0,0,1,0,0.3,0,1 @ F,0,0,1,0,0.3,0,1 @ F,0,0,1,0,0.3,0,1 @ F,0,0,1,0,0.3,0,1 @ F,0,0,1,0,0.3,0,1"
       unit="px"
       method="auto"
       mode="F"
       radius="0.3"
       chamfer_steps="1"
       flexible="false"
       use_knot_distance="true"
       apply_no_radius="true"
       apply_with_radius="true"
       only_selected="false"
       hide_knots="false" />
    <inkscape:path-effect
       effect="fillet_chamfer"
       id="path-effect1029"
       is_visible="true"
       lpeversion="1"
       nodesatellites_param="F,0,0,1,0,0.3,0,1 @ F,0,0,1,0,0.3,0,1 @ F,0,0,1,0,0.3,0,1 @ F,0,0,1,0,0.3,0,1 @ F,0,0,1,0,0.3,0,1 @ F,0,0,1,0,0.3,0,1 @ F,0,0,1,0,0.3,0,1 @ F,0,0,1,0,0.3,0,1 @ F,0,0,1,0,0.3,0,1 @ F,0,0,1,0,0.3,0,1 @ F,0,0,1,0,0.3,0,1 @ F,0,0,1,0,0.3,0,1 @ F,0,0,1,0,0.3,0,1 @ F,0,0,1,0,0.3,0,1 @ F,0,0,1,0,0.3,0,1 @ F,0,0,1,0,0.3,0,1 @ F,0,0,1,0,0.3,0,1 @ F,0,0,1,0,0.3,0,1"
       unit="px"
       method="auto"
       mode="F"
       radius="0.3"
       chamfer_steps="1"
       flexible="false"
       use_knot_distance="true"
       apply_no_radius="true"
       apply_with_radius="true"
       only_selected="false"
       hide_knots="false" />
    <inkscape:path-effect
       effect="fillet_chamfer"
       id="path-effect1027"
       is_visible="true"
       lpeversion="1"
       nodesatellites_param="F,0,0,1,0,0.3,0,1 @ F,0,0,1,0,0.3,0,1 @ F,0,0,1,0,0.3,0,1 @ F,0,0,1,0,0.3,0,1 @ F,0,0,1,0,0.3,0,1 @ F,0,0,1,0,0.3,0,1 @ F,0,0,1,0,0.3,0,1 @ F,0,0,1,0,0.3,0,1 @ F,0,0,1,0,0.3,0,1 @ F,0,0,1,0,0.3,0,1 @ F,0,0,1,0,0.3,0,1 @ F,0,0,1,0,0.3,0,1 @ F,0,0,1,0,0.3,0,1"
       unit="px"
       method="auto"
       mode="F"
       radius="0.3"
       chamfer_steps="1"
       flexible="false"
       use_knot_distance="true"
       apply_no_radius="true"
       apply_with_radius="true"
       only_selected="false"
       hide_knots="false" />
    <inkscape:path-effect
       effect="fillet_chamfer"
       id="path-effect1025"
       is_visible="true"
       lpeversion="1"
       nodesatellites_param="F,0,0,1,0,0,0,1 @ F,0,0,1,0,0,0,1 @ F,0,0,1,0,0,0,1 @ F,0,0,1,0,0,0,1 @ F,0,0,1,0,0,0,1 @ F,0,0,1,0,0,0,1 @ F,0,0,1,0,0,0,1 @ F,0,0,1,0,0,0,1 @ F,0,0,1,0,0,0,1 @ F,0,0,1,0,0,0,1 @ F,0,0,1,0,0,0,1 @ F,0,0,1,0,0,0,1 @ F,0,0,1,0,0,0,1"
       unit="px"
       method="auto"
       mode="F"
       radius="0.1"
       chamfer_steps="1"
       flexible="false"
       use_knot_distance="true"
       apply_no_radius="true"
       apply_with_radius="true"
       only_selected="false"
       hide_knots="false" />
    <inkscape:path-effect
       effect="fillet_chamfer"
       id="path-effect1023"
       is_visible="true"
       lpeversion="1"
       nodesatellites_param="F,0,0,1,0,0,0,1 @ F,0,0,1,0,0,0,1 @ F,0,0,1,0,0,0,1 @ F,0,0,1,0,0,0,1 @ F,0,0,1,0,0,0,1 @ F,0,0,1,0,0,0,1 @ F,0,0,1,0,0,0,1 @ F,0,0,1,0,0,0,1 @ F,0,0,1,0,0,0,1 @ F,0,0,1,0,0,0,1 @ F,0,0,1,0,0,0,1 @ F,0,0,1,0,0,0,1"
       unit="px"
       method="auto"
       mode="F"
       radius="0.2"
       chamfer_steps="1"
       flexible="false"
       use_knot_distance="true"
       apply_no_radius="true"
       apply_with_radius="true"
       only_selected="false"
       hide_knots="false" />
  </defs>
  <sodipodi:namedview
     id="namedview382"
     pagecolor="#ffffff"
     bordercolor="#000000"
     borderopacity="0.25"
     inkscape:showpageshadow="2"
     inkscape:pageopacity="0.0"
     inkscape:pagecheckerboard="0"
     inkscape:deskcolor="#d1d1d1"
     showgrid="false"
     inkscape:zoom="32"
     inkscape:cx="11.140625"
     inkscape:cy="9.703125"
     inkscape:window-width="3840"
     inkscape:window-height="2051"
     inkscape:window-x="3840"
     inkscape:window-y="0"
     inkscape:window-maximized="1"
     inkscape:current-layer="svg380" />
  <path
     d="M 5.0389587,4.9520399 C 7.2047622,3.238933 10.349251,3.6059172 12.062357,5.7717204 c 0.17131,0.2165788 0.485761,0.2532775 0.70234,0.081968 0.216579,-0.1713095 0.253278,-0.4857611 0.08197,-0.7023398 C 10.790933,2.55238 7.0175559,2.112 4.4185869,4.167732 L 4.1886592,4.3496002 4.3764959,2.7390688 C 4.4084877,2.4647838 4.2120656,2.2165047 3.9377881,2.1845109 3.6635023,2.1525229 3.4152212,2.3489392 3.3832296,2.6232244 l -0.3276365,2.809206 c -0.031987,0.2742591 0.164392,0.5225318 0.43864,0.5545527 L 6.3034058,6.3149903 C 6.5776898,6.3470083 6.8259984,6.1506267 6.8580226,5.8763506 6.8900468,5.6020745 6.693659,5.353758 6.4193829,5.3217338 L 4.8092506,5.1337344 Z"
     fill="#6c707e"
     id="path372"
     style="fill:#ced0d6;fill-opacity:1" />
  <path
     d="m 1.5223429,7.4917918 h 0.6105456 a 0.3,0.3 45 0 1 0.3,0.3 v 1.2059311 a 0.3,0.3 45 0 0 0.3,0.3 h 0.9142083 a 0.3,0.3 135 0 0 0.3,-0.3 l 0,-1.2059311 a 0.3,0.3 135 0 1 0.3,-0.3 h 0.6105458 a 0.3,0.3 45 0 1 0.3,0.3 v 4.2785662 a 0.3,0.3 135 0 1 -0.3,0.3 H 4.2470968 a 0.3,0.3 45 0 1 -0.3,-0.3 v -1.513846 a 0.3,0.3 45 0 0 -0.3,-0.3 H 2.7328885 a 0.3,0.3 135 0 0 -0.3,0.3 v 1.513846 a 0.3,0.3 135 0 1 -0.3,0.3 H 1.5223429 a 0.3,0.3 45 0 1 -0.3,-0.3 V 7.7917918 a 0.3,0.3 135 0 1 0.3,-0.3 z"
     id="path1003"
     style="font-weight:bold;font-size:6.22139px;font-family:monospace;-inkscape-font-specification:'monospace Bold';fill:#ced0d6;fill-opacity:1;stroke-width:0.141034;stroke-linejoin:round;stroke-miterlimit:2.7;stroke-dasharray:none"
     inkscape:path-effect="#path-effect1031"
     inkscape:original-d="M 1.2223429,7.4917918 H 2.4328885 V 9.2977229 H 3.9470968 V 7.4917918 H 5.1576426 V 12.370358 H 3.9470968 V 10.256512 H 2.4328885 v 2.113846 H 1.2223429 Z"
     sodipodi:nodetypes="ccccccccccccc" />
  <path
     d="M 6.0495532,7.4917918 H 6.5082679 A 0.33902712,0.33902712 41.505133 0 1 6.8447754,7.7895622 L 7.2108397,10.77534 a 0.05252134,0.05252134 2.9404644 0 0 0.1033328,0.0053 L 7.7098794,9.0488261 A 0.37627917,0.37627917 141.43533 0 1 8.0767047,8.7563635 l 0.4053682,0 a 0.39011443,0.39011443 37.560469 0 1 0.3770339,0.289941 l 0.4614643,1.7368645 a 0.05391579,0.05391579 175.30933 0 0 0.1057758,-0.0087 L 9.7135614,7.7904118 a 0.33026108,0.33026108 137.74886 0 1 0.3287416,-0.29862 h 0.466925 a 0.25972053,0.25972053 49.116111 0 1 0.257044,0.2969088 L 10.146371,12.073449 A 0.34652632,0.34652632 139.11611 0 1 9.803415,12.370358 H 9.2749401 A 0.3926161,0.3926161 37.383633 0 1 8.896118,12.080898 l -0.5399588,-1.9829 a 0.07904354,0.07904354 179.52801 0 0 -0.1528647,0.0013 l -0.5043786,1.980382 a 0.38598328,0.38598328 142.14437 0 1 -0.3740426,0.290719 l -0.5202678,0 A 0.35000256,0.35000256 40.601088 0 1 6.458721,12.073888 L 5.7954377,7.7882621 A 0.25714098,0.25714098 130.60109 0 1 6.0495532,7.4917918 Z"
     id="path1005"
     style="font-weight:bold;font-size:6.22139px;font-family:monospace;-inkscape-font-specification:'monospace Bold';fill:#ced0d6;fill-opacity:1;stroke-width:0.141034;stroke-linejoin:round;stroke-miterlimit:2.7;stroke-dasharray:none"
     inkscape:path-effect="#path-effect1027"
     inkscape:original-d="M 5.7495532,7.4917918 H 6.8082679 L 7.2473472,11.07311 7.7767047,8.7563635 H 8.7820729 L 9.397605,11.07311 9.7423033,7.4917918 H 10.809228 L 10.103415,12.370358 H 8.9749401 L 8.2773371,9.8085379 7.6248733,12.370358 H 6.5046055 Z" />
  <path
     d="m 14.737069,12.326101 c -0.0095,0.0028 -0.01892,0.0056 -0.02842,0.0083 -0.159227,0.04559 -0.424059,0.0944 -0.588932,0.11024 -0.02257,0.0022 -0.04526,0.0041 -0.06806,0.0059 -0.165153,0.01274 -0.434228,0.0127 -0.599482,0.0012 -0.553978,-0.0385 -1.008635,-0.187054 -1.363972,-0.44567 -0.133817,-0.09739 -0.325424,-0.288328 -0.423326,-0.421792 -0.258987,-0.353064 -0.407928,-0.803679 -0.446821,-1.351844 -0.01172,-0.165223 -0.01172,-0.4342606 -5.2e-5,-0.5995007 0.03881,-0.549895 0.187789,-1.0015861 0.446926,-1.3550735 0.09785,-0.133482 0.289463,-0.32442 0.423292,-0.4218194 0.355339,-0.2586114 0.809998,-0.4071639 1.363976,-0.4456574 0.165241,-0.011482 0.434301,-0.011479 0.599463,0.00116 0.02415,0.00185 0.04819,0.00392 0.07211,0.00623 0.164873,0.015872 0.429867,0.063899 0.589037,0.1096638 0.0083,0.00238 0.01653,0.00479 0.02476,0.00724 0.158737,0.047187 0.28237,0.2351943 0.28237,0.4008797 V 8.407333 c 0,0.1656854 -0.107318,0.2184314 -0.250302,0.1348702 -0.02782,-0.016255 -0.05553,-0.031737 -0.08314,-0.046445 -0.146092,-0.077825 -0.400008,-0.1713685 -0.562771,-0.2012226 -0.0053,-9.642e-4 -0.01052,-0.0019 -0.01578,-0.00282 -0.163043,-0.028329 -0.434116,-0.02945 -0.597232,-0.00153 -0.187635,0.032114 -0.350466,0.09648 -0.488492,0.1931 -0.135286,0.094701 -0.305276,0.3094843 -0.375022,0.4593285 -0.0886,0.1903617 -0.144437,0.4205052 -0.167496,0.6904307 -0.0141,0.1650275 -0.0141,0.4342822 8.7e-5,0.5993082 0.02315,0.269225 0.07911,0.499268 0.16787,0.690128 0.0697,0.149872 0.239728,0.364592 0.375454,0.458657 0.137831,0.09552 0.300358,0.159183 0.487582,0.19098 0.163153,0.02771 0.434133,0.02655 0.597324,-9.57e-4 0.005,-8.47e-4 0.01004,-0.0017 0.01506,-0.0026 0.162947,-0.02892 0.416828,-0.122366 0.562608,-0.200805 0.02796,-0.01505 0.05603,-0.03086 0.0842,-0.04745 0.142706,-0.08404 0.250051,-0.0312 0.250051,0.134484 v 0.471795 c 0,0.165685 -0.124106,0.352405 -0.282876,0.399527 z"
     id="path1007"
     style="font-weight:bold;font-size:6.22139px;font-family:monospace;-inkscape-font-specification:'monospace Bold';fill:#ced0d6;fill-opacity:1;stroke-width:0.141034;stroke-linejoin:round;stroke-miterlimit:2.7;stroke-dasharray:none"
     inkscape:path-effect="#path-effect1029"
     inkscape:original-d="m 15.019945,12.226574 q -0.287248,0.117637 -0.603221,0.176452 -0.315972,0.05881 -0.664773,0.05881 -1.239271,0 -1.891735,-0.650258 -0.652463,-0.650257 -0.652463,-1.8788851 0,-1.2318956 0.652463,-1.8821535 0.652464,-0.6502569 1.891735,-0.6502569 0.348801,0 0.668876,0.058817 0.320078,0.058817 0.599118,0.1764513 V 8.707333 Q 14.708075,8.4785994 14.412621,8.3740344 14.12127,8.2662024 13.8094,8.2662024 q -0.664775,0 -1.005369,0.4215243 -0.33649,0.4182563 -0.33649,1.2449662 0,0.8234431 0.33649,1.2449651 0.340594,0.418256 1.005369,0.418256 0.31187,0 0.603221,-0.10457 0.295454,-0.107837 0.607324,-0.336565 z" />
  <rect
     style="fill:#ced0d6;fill-opacity:1;stroke-width:0.102252;stroke-linejoin:round;stroke-miterlimit:2.7;stroke-dasharray:none"
     id="rect3562"
     width="3.958559"
     height="0.81221819"
     x="11.225569"
     y="13.150745"
     ry="0.2051148" />
</svg>
