<svg xmlns="http://www.w3.org/2000/svg" xml:space="preserve" style="fill-rule:evenodd;clip-rule:evenodd;stroke-linecap:round;stroke-linejoin:round;stroke-miterlimit:1.5" viewBox="0 0 40 40"><path d="M0 0h39.987v39.987H0z" style="fill:none"/><path d="M37.634 3.511a1.06 1.06 0 0 0-1.06-1.06H3.358a1.06 1.06 0 0 0-1.06 1.06v33.215c0 .585.475 1.06 1.06 1.06h33.216a1.06 1.06 0 0 0 1.06-1.06V3.511Z" style="fill:#0c1727"/><path d="M4.535 5.198a.466.466 0 0 1-.062.015c-.018.004-.036.004-.049.004a.276.276 0 0 1-.094-.015.346.346 0 0 1-.085-.045.278.278 0 0 1-.062-.074.28.28 0 0 1-.022-.104c0-.096.058-.163.178-.204a1.95 1.95 0 0 0 .383-.16c.111-.066.218-.144.316-.233a.306.306 0 0 1 .298-.063.33.33 0 0 1 .156.129c.014.026.022.06.022.093L5.51 6.653c0 .148-.089.222-.267.222-.183 0-.272-.074-.272-.222V5.02a2.75 2.75 0 0 1-.214.1 3.97 3.97 0 0 1-.222.078ZM7.901 5.198a.466.466 0 0 1-.062.015c-.018.004-.036.004-.049.004a.274.274 0 0 1-.093-.015.245.245 0 0 1-.147-.119.263.263 0 0 1-.023-.104c0-.096.058-.163.178-.204.143-.045.272-.096.383-.16.112-.066.219-.144.317-.233a.306.306 0 0 1 .298-.063.307.307 0 0 1 .156.129c.013.026.022.06.022.093l-.004 2.112c0 .148-.09.222-.268.222-.182 0-.271-.074-.271-.222V5.02c-.071.037-.143.07-.214.1a4.019 4.019 0 0 1-.223.078ZM11.571 4.307c.338 0 .623.138.855.409.209.252.316.545.316.879 0 .174-.031.341-.094.497a1.233 1.233 0 0 1-.623.687c-.143.067-.294.1-.454.1-.165 0-.316-.033-.459-.1a1.233 1.233 0 0 1-.623-.687 1.496 1.496 0 0 1-.014-.972c.054-.145.134-.282.236-.404.112-.13.241-.23.388-.301.142-.07.302-.108.472-.108Zm.414.668c-.125-.144-.263-.215-.414-.215a.476.476 0 0 0-.245.067.606.606 0 0 0-.196.182.935.935 0 0 0-.138.267 1.06 1.06 0 0 0 0 .634.83.83 0 0 0 .133.264.677.677 0 0 0 .201.182.475.475 0 0 0 .49 0 .627.627 0 0 0 .196-.182.83.83 0 0 0 .133-.264.916.916 0 0 0 .049-.315.937.937 0 0 0-.209-.62ZM14.634 5.198a.466.466 0 0 1-.062.015c-.018.004-.036.004-.049.004a.274.274 0 0 1-.093-.015.245.245 0 0 1-.147-.119.263.263 0 0 1-.023-.104c0-.096.058-.163.179-.204a1.94 1.94 0 0 0 .382-.16c.112-.066.219-.144.317-.233a.306.306 0 0 1 .298-.063.307.307 0 0 1 .156.129c.013.026.022.06.022.093l-.004 2.112c0 .148-.089.222-.268.222-.182 0-.271-.074-.271-.222V5.02c-.071.037-.143.07-.214.1a4.019 4.019 0 0 1-.223.078ZM18.304 4.307c.338 0 .623.138.855.409.209.252.316.545.316.879 0 .174-.031.341-.094.497a1.233 1.233 0 0 1-.623.687c-.143.067-.294.1-.454.1-.165 0-.316-.033-.459-.1a1.233 1.233 0 0 1-.623-.687 1.496 1.496 0 0 1-.014-.972c.054-.145.134-.282.236-.404.112-.13.241-.23.388-.301.142-.07.303-.108.472-.108Zm.414.668c-.125-.144-.263-.215-.414-.215a.478.478 0 0 0-.245.067.606.606 0 0 0-.196.182.961.961 0 0 0-.187.586c0 .111.018.215.049.315a.83.83 0 0 0 .133.264.677.677 0 0 0 .201.182.477.477 0 0 0 .49 0 .627.627 0 0 0 .196-.182.83.83 0 0 0 .133-.264.916.916 0 0 0 .049-.315.937.937 0 0 0-.209-.62ZM21.67 4.307c.339 0 .624.138.855.409.209.252.316.545.316.879 0 .174-.031.341-.093.497a1.287 1.287 0 0 1-.25.408 1.209 1.209 0 0 1-.374.279 1.05 1.05 0 0 1-.454.1c-.164 0-.316-.033-.458-.1a1.209 1.209 0 0 1-.374-.279 1.335 1.335 0 0 1-.339-.905c0-.171.027-.326.076-.475.053-.145.133-.282.236-.404.111-.13.24-.23.387-.301a1.07 1.07 0 0 1 .472-.108Zm.414.668c-.124-.144-.262-.215-.414-.215a.48.48 0 0 0-.245.067.627.627 0 0 0-.196.182.989.989 0 0 0-.138.267 1.06 1.06 0 0 0 0 .634c.032.101.076.19.134.264a.686.686 0 0 0 .2.182.477.477 0 0 0 .49 0 .606.606 0 0 0 .196-.182.811.811 0 0 0 .134-.264.94.94 0 0 0 .049-.315.938.938 0 0 0-.21-.62ZM24.734 5.198a.466.466 0 0 1-.062.015c-.018.004-.036.004-.049.004a.28.28 0 0 1-.241-.134.28.28 0 0 1-.022-.104c0-.096.058-.163.178-.204.143-.045.272-.096.383-.16.111-.066.218-.144.316-.233a.309.309 0 0 1 .299-.063.303.303 0 0 1 .155.129c.014.026.023.06.023.093l-.005 2.112c0 .148-.089.222-.267.222-.183 0-.272-.074-.272-.222V5.02c-.071.037-.142.07-.213.1a4.329 4.329 0 0 1-.223.078ZM28.403 4.307c.339 0 .624.138.855.409.21.252.316.545.316.879 0 .174-.031.341-.093.497a1.233 1.233 0 0 1-.623.687c-.143.067-.294.1-.455.1-.164 0-.316-.033-.458-.1a1.22 1.22 0 0 1-.374-.279 1.335 1.335 0 0 1-.339-.905c0-.171.027-.326.076-.475.053-.145.134-.282.236-.404.111-.13.24-.23.387-.301a1.07 1.07 0 0 1 .472-.108Zm.414.668c-.124-.144-.262-.215-.414-.215a.48.48 0 0 0-.245.067.613.613 0 0 0-.195.182.963.963 0 0 0-.188.586c0 .111.018.215.049.315.032.101.076.19.134.264a.686.686 0 0 0 .2.182.477.477 0 0 0 .49 0 .606.606 0 0 0 .196-.182.811.811 0 0 0 .134-.264.94.94 0 0 0 .049-.315.938.938 0 0 0-.21-.62ZM31.77 4.307c.338 0 .623.138.855.409.209.252.316.545.316.879 0 .174-.031.341-.094.497a1.285 1.285 0 0 1-.249.408 1.22 1.22 0 0 1-.374.279c-.142.067-.294.1-.454.1-.165 0-.316-.033-.459-.1a1.233 1.233 0 0 1-.623-.687 1.496 1.496 0 0 1-.014-.972c.054-.145.134-.282.236-.404.112-.13.241-.23.388-.301.142-.07.303-.108.472-.108Zm.414.668c-.125-.144-.263-.215-.414-.215a.478.478 0 0 0-.245.067.606.606 0 0 0-.196.182.961.961 0 0 0-.187.586c0 .111.018.215.049.315.031.101.076.19.134.264a.662.662 0 0 0 .2.182.477.477 0 0 0 .49 0 .81.81 0 0 0 .329-.446.916.916 0 0 0 .049-.315.937.937 0 0 0-.209-.62ZM34.834 5.198a.48.48 0 0 1-.063.015c-.018.004-.035.004-.049.004a.274.274 0 0 1-.093-.015.346.346 0 0 1-.085-.045.26.26 0 0 1-.062-.074.262.262 0 0 1-.022-.104c0-.096.057-.163.178-.204.142-.045.271-.096.383-.16.111-.066.218-.144.316-.233a.306.306 0 0 1 .298-.063.307.307 0 0 1 .156.129c.013.026.022.06.022.093l-.004 2.112c0 .148-.089.222-.267.222-.183 0-.272-.074-.272-.222V5.02c-.071.037-.143.07-.214.1a4.277 4.277 0 0 1-.222.078ZM4.838 9.132c.338 0 .623.138.855.408.209.253.316.546.316.88 0 .174-.031.341-.094.497a1.233 1.233 0 0 1-.623.687 1.07 1.07 0 0 1-.454.1c-.165 0-.317-.034-.459-.1a1.233 1.233 0 0 1-.623-.687 1.492 1.492 0 0 1-.014-.972c.054-.145.134-.282.236-.405a1.19 1.19 0 0 1 .388-.3 1.05 1.05 0 0 1 .472-.108Zm.414.668c-.125-.145-.263-.215-.414-.215a.476.476 0 0 0-.245.067.595.595 0 0 0-.196.182.935.935 0 0 0-.138.267 1.06 1.06 0 0 0 0 .634c.031.1.075.19.133.264a.677.677 0 0 0 .201.182.49.49 0 0 0 .49 0 .613.613 0 0 0 .195-.182.821.821 0 0 0 .134-.264.916.916 0 0 0 .049-.315.937.937 0 0 0-.209-.62ZM7.901 10.023a.466.466 0 0 1-.062.015c-.018.003-.036.003-.049.003a.273.273 0 0 1-.24-.133.267.267 0 0 1-.023-.104c0-.097.058-.163.178-.204.143-.045.272-.097.383-.16.112-.067.219-.144.317-.234a.31.31 0 0 1 .298-.063.44.44 0 0 1 .089.052.33.33 0 0 1 .067.078c.013.026.022.06.022.093l-.004 2.111c0 .149-.09.223-.268.223-.182 0-.271-.074-.271-.223V9.845c-.071.037-.143.07-.214.1a4.019 4.019 0 0 1-.223.078ZM31.467 10.023a.466.466 0 0 1-.062.015c-.018.003-.036.003-.049.003a.279.279 0 0 1-.178-.059.279.279 0 0 1-.063-.074.285.285 0 0 1-.022-.104c0-.097.058-.163.178-.204.143-.045.272-.097.383-.16a1.97 1.97 0 0 0 .316-.234.313.313 0 0 1 .299-.063c.031.015.062.03.089.052a.326.326 0 0 1 .066.078c.014.026.023.06.023.093l-.005 2.111c0 .149-.089.223-.267.223-.182 0-.272-.074-.272-.223V9.845c-.071.037-.142.07-.213.1a4.329 4.329 0 0 1-.223.078ZM35.136 9.132c.339 0 .624.138.855.408.21.253.316.546.316.88 0 .174-.031.341-.093.497a1.233 1.233 0 0 1-.623.687c-.143.066-.294.1-.455.1-.164 0-.316-.034-.458-.1a1.22 1.22 0 0 1-.374-.279 1.335 1.335 0 0 1-.339-.905c0-.171.027-.327.076-.475.053-.145.134-.282.236-.405.111-.129.24-.23.387-.3.143-.071.303-.108.472-.108Zm.414.668c-.124-.145-.262-.215-.414-.215a.48.48 0 0 0-.245.067.602.602 0 0 0-.195.182.935.935 0 0 0-.138.267 1.03 1.03 0 0 0 0 .634c.031.1.075.19.133.264a.686.686 0 0 0 .2.182.484.484 0 0 0 .49 0 .606.606 0 0 0 .196-.182.821.821 0 0 0 .134-.264.94.94 0 0 0 .049-.315.933.933 0 0 0-.21-.62ZM4.535 14.848a.346.346 0 0 1-.062.014c-.018.004-.036.004-.049.004a.276.276 0 0 1-.094-.015.38.38 0 0 1-.085-.044.299.299 0 0 1-.062-.075.275.275 0 0 1-.022-.103c0-.097.058-.164.178-.204.142-.045.272-.097.383-.16.111-.067.218-.145.316-.234a.306.306 0 0 1 .298-.063c.032.015.063.03.089.052a.295.295 0 0 1 .067.078.2.2 0 0 1 .022.093l-.004 2.111c0 .149-.089.223-.267.223-.183 0-.272-.074-.272-.223v-1.633a2.438 2.438 0 0 1-.436.179ZM34.834 14.848a.356.356 0 0 1-.063.014c-.018.004-.035.004-.049.004a.274.274 0 0 1-.093-.015.38.38 0 0 1-.085-.044.28.28 0 0 1-.062-.075.257.257 0 0 1-.022-.103c0-.097.057-.164.178-.204a2.04 2.04 0 0 0 .383-.16c.111-.067.218-.145.316-.234a.306.306 0 0 1 .298-.063c.031.015.062.03.089.052a.295.295 0 0 1 .067.078.212.212 0 0 1 .022.093l-.004 2.111c0 .149-.089.223-.267.223-.183 0-.272-.074-.272-.223v-1.633a2.581 2.581 0 0 1-.214.101 4.277 4.277 0 0 1-.222.078ZM4.838 18.782c.338 0 .623.137.855.408.209.252.316.545.316.879 0 .175-.031.342-.094.497a1.29 1.29 0 0 1-.249.409 1.246 1.246 0 0 1-.374.278c-.143.067-.294.1-.454.1-.165 0-.317-.033-.459-.1a1.246 1.246 0 0 1-.374-.278 1.29 1.29 0 0 1-.249-.409 1.5 1.5 0 0 1-.014-.972c.054-.144.134-.282.236-.404.112-.13.241-.23.388-.301.142-.07.302-.107.472-.107Zm.414.668c-.125-.145-.263-.216-.414-.216a.485.485 0 0 0-.245.067.606.606 0 0 0-.196.182.935.935 0 0 0-.138.267 1.06 1.06 0 0 0 0 .635c.031.1.075.189.133.263a.677.677 0 0 0 .201.182.475.475 0 0 0 .49 0 .613.613 0 0 0 .195-.182.816.816 0 0 0 .134-.263.922.922 0 0 0 .049-.316.936.936 0 0 0-.209-.619ZM34.834 19.672a.36.36 0 0 1-.063.015c-.018.004-.035.004-.049.004a.274.274 0 0 1-.093-.015.346.346 0 0 1-.085-.045.26.26 0 0 1-.062-.074.262.262 0 0 1-.022-.104c0-.096.057-.163.178-.204.142-.044.271-.096.383-.159.111-.067.218-.145.316-.234a.306.306 0 0 1 .298-.063c.031.015.062.029.089.052a.295.295 0 0 1 .067.078.211.211 0 0 1 .022.092l-.004 2.112c0 .148-.089.222-.267.222-.183 0-.272-.074-.272-.222v-1.633a2.567 2.567 0 0 1-.436.178ZM4.838 23.606c.338 0 .623.138.855.409.209.252.316.545.316.879 0 .174-.031.341-.094.497a1.233 1.233 0 0 1-.623.687c-.143.067-.294.1-.454.1-.165 0-.317-.033-.459-.1a1.233 1.233 0 0 1-.623-.687 1.496 1.496 0 0 1-.014-.972c.054-.145.134-.282.236-.404.112-.13.241-.23.388-.301.142-.07.302-.108.472-.108Zm.414.668c-.125-.144-.263-.215-.414-.215a.476.476 0 0 0-.245.067.595.595 0 0 0-.196.182.935.935 0 0 0-.138.267 1.06 1.06 0 0 0 0 .634.81.81 0 0 0 .133.264.677.677 0 0 0 .201.182.475.475 0 0 0 .49 0 .613.613 0 0 0 .195-.182.811.811 0 0 0 .134-.264.916.916 0 0 0 .049-.315.937.937 0 0 0-.209-.62ZM35.136 23.606c.339 0 .624.138.855.409.21.252.316.545.316.879 0 .174-.031.341-.093.497a1.233 1.233 0 0 1-.623.687c-.143.067-.294.1-.455.1-.164 0-.316-.033-.458-.1a1.22 1.22 0 0 1-.374-.279 1.335 1.335 0 0 1-.339-.905c0-.171.027-.326.076-.475.053-.145.134-.282.236-.404.111-.13.24-.23.387-.301a1.07 1.07 0 0 1 .472-.108Zm.414.668c-.124-.144-.262-.215-.414-.215a.48.48 0 0 0-.245.067.602.602 0 0 0-.195.182.935.935 0 0 0-.138.267 1.03 1.03 0 0 0 0 .634.81.81 0 0 0 .133.264.686.686 0 0 0 .2.182.477.477 0 0 0 .49 0 .606.606 0 0 0 .196-.182.811.811 0 0 0 .134-.264.94.94 0 0 0 .049-.315.933.933 0 0 0-.21-.62ZM4.838 28.431c.338 0 .623.137.855.408.209.253.316.546.316.88 0 .174-.031.341-.094.497a1.285 1.285 0 0 1-.249.408 1.214 1.214 0 0 1-.374.278 1.057 1.057 0 0 1-.454.101 1.06 1.06 0 0 1-.459-.101 1.214 1.214 0 0 1-.374-.278 1.285 1.285 0 0 1-.249-.408 1.492 1.492 0 0 1-.014-.972c.054-.145.134-.282.236-.405.112-.13.241-.23.388-.3a1.05 1.05 0 0 1 .472-.108Zm.414.668c-.125-.145-.263-.215-.414-.215a.476.476 0 0 0-.245.067.603.603 0 0 0-.196.181.941.941 0 0 0-.138.268 1.06 1.06 0 0 0 0 .634.83.83 0 0 0 .133.264.66.66 0 0 0 .201.181.48.48 0 0 0 .49 0 .599.599 0 0 0 .195-.181.832.832 0 0 0 .134-.264.916.916 0 0 0 .049-.315.937.937 0 0 0-.209-.62ZM7.901 29.322a.466.466 0 0 1-.062.015c-.018.003-.036.003-.049.003a.252.252 0 0 1-.093-.015.36.36 0 0 1-.085-.044.258.258 0 0 1-.062-.074.267.267 0 0 1-.023-.104c0-.097.058-.163.178-.204.143-.045.272-.097.383-.16.112-.067.219-.145.317-.234a.306.306 0 0 1 .298-.063.312.312 0 0 1 .156.13c.013.026.022.06.022.093l-.004 2.111c0 .149-.09.223-.268.223-.182 0-.271-.074-.271-.223v-1.632c-.071.037-.143.07-.214.1a4.019 4.019 0 0 1-.223.078ZM35.136 28.431c.339 0 .624.137.855.408.21.253.316.546.316.88 0 .174-.031.341-.093.497a1.303 1.303 0 0 1-.249.408 1.214 1.214 0 0 1-.374.278 1.058 1.058 0 0 1-.455.101c-.164 0-.316-.034-.458-.101a1.202 1.202 0 0 1-.374-.278 1.335 1.335 0 0 1-.339-.905c0-.171.027-.327.076-.475.053-.145.134-.282.236-.405.111-.13.24-.23.387-.3.143-.071.303-.108.472-.108Zm.414.668c-.124-.145-.262-.215-.414-.215a.48.48 0 0 0-.245.067.61.61 0 0 0-.195.181.941.941 0 0 0-.138.268 1.03 1.03 0 0 0 0 .634.83.83 0 0 0 .133.264.669.669 0 0 0 .2.181.476.476 0 0 0 .49 0 .592.592 0 0 0 .196-.181.832.832 0 0 0 .134-.264.94.94 0 0 0 .049-.315.933.933 0 0 0-.21-.62ZM4.535 34.146a.28.28 0 0 1-.062.015c-.018.004-.036.004-.049.004a.276.276 0 0 1-.094-.015.38.38 0 0 1-.085-.044.299.299 0 0 1-.062-.075.276.276 0 0 1-.022-.104c0-.096.058-.163.178-.204a1.95 1.95 0 0 0 .383-.159c.111-.067.218-.145.316-.234a.306.306 0 0 1 .298-.063c.032.015.063.03.089.052a.295.295 0 0 1 .067.078.2.2 0 0 1 .022.093l-.004 2.111c0 .148-.089.223-.267.223-.183 0-.272-.075-.272-.223v-1.633a2.426 2.426 0 0 1-.436.178ZM7.901 34.146a.28.28 0 0 1-.062.015c-.018.004-.036.004-.049.004a.274.274 0 0 1-.093-.015.36.36 0 0 1-.085-.044.262.262 0 0 1-.062-.075.26.26 0 0 1-.023-.104c0-.096.058-.163.178-.204.143-.044.272-.096.383-.159.112-.067.219-.145.317-.234a.306.306 0 0 1 .298-.063.44.44 0 0 1 .089.052.295.295 0 0 1 .067.078.212.212 0 0 1 .022.093l-.004 2.111c0 .148-.09.223-.268.223-.182 0-.271-.075-.271-.223v-1.633a2.567 2.567 0 0 1-.437.178ZM11.571 33.256c.338 0 .623.137.855.408.209.252.316.546.316.879 0 .175-.031.342-.094.498a1.285 1.285 0 0 1-.249.408 1.214 1.214 0 0 1-.374.278c-.143.067-.294.1-.454.1-.165 0-.316-.033-.459-.1a1.214 1.214 0 0 1-.374-.278 1.285 1.285 0 0 1-.249-.408 1.5 1.5 0 0 1-.014-.973c.054-.144.134-.282.236-.404.112-.13.241-.23.388-.301.142-.07.302-.107.472-.107Zm.414.668c-.125-.145-.263-.215-.414-.215a.484.484 0 0 0-.245.066.606.606 0 0 0-.196.182.935.935 0 0 0-.138.267 1.065 1.065 0 0 0 0 .635c.031.1.076.189.133.263a.664.664 0 0 0 .201.182.48.48 0 0 0 .49 0 .615.615 0 0 0 .196-.182.835.835 0 0 0 .133-.263.918.918 0 0 0 .049-.316.936.936 0 0 0-.209-.619ZM14.634 34.146a.28.28 0 0 1-.062.015c-.018.004-.036.004-.049.004a.274.274 0 0 1-.093-.015.36.36 0 0 1-.085-.044.262.262 0 0 1-.062-.075.26.26 0 0 1-.023-.104c0-.096.058-.163.179-.204a1.94 1.94 0 0 0 .382-.159c.112-.067.219-.145.317-.234a.306.306 0 0 1 .298-.063.44.44 0 0 1 .089.052.295.295 0 0 1 .067.078.212.212 0 0 1 .022.093l-.004 2.111c0 .148-.089.223-.268.223-.182 0-.271-.075-.271-.223v-1.633a2.567 2.567 0 0 1-.437.178ZM18.304 33.256c.338 0 .623.137.855.408.209.252.316.546.316.879 0 .175-.031.342-.094.498a1.285 1.285 0 0 1-.249.408 1.214 1.214 0 0 1-.374.278c-.143.067-.294.1-.454.1-.165 0-.316-.033-.459-.1a1.214 1.214 0 0 1-.374-.278 1.285 1.285 0 0 1-.249-.408 1.5 1.5 0 0 1-.014-.973c.054-.144.134-.282.236-.404.112-.13.241-.23.388-.301.142-.07.303-.107.472-.107Zm.414.668c-.125-.145-.263-.215-.414-.215a.487.487 0 0 0-.245.066.606.606 0 0 0-.196.182.961.961 0 0 0-.187.586c0 .112.018.216.049.316.031.1.076.189.133.263a.664.664 0 0 0 .201.182.48.48 0 0 0 .49 0 .615.615 0 0 0 .196-.182.835.835 0 0 0 .133-.263.918.918 0 0 0 .049-.316.936.936 0 0 0-.209-.619ZM21.67 33.256c.339 0 .624.137.855.408.209.252.316.546.316.879 0 .175-.031.342-.093.498a1.287 1.287 0 0 1-.25.408 1.19 1.19 0 0 1-.374.278 1.05 1.05 0 0 1-.454.1c-.164 0-.316-.033-.458-.1a1.19 1.19 0 0 1-.374-.278 1.337 1.337 0 0 1-.339-.906c0-.17.027-.326.076-.475.053-.144.133-.282.236-.404.111-.13.24-.23.387-.301.143-.07.303-.107.472-.107Zm.414.668c-.124-.145-.262-.215-.414-.215a.49.49 0 0 0-.245.066.627.627 0 0 0-.196.182.989.989 0 0 0-.138.267 1.065 1.065 0 0 0 0 .635c.032.1.076.189.134.263a.673.673 0 0 0 .2.182.478.478 0 0 0 .49 0 .595.595 0 0 0 .196-.182.816.816 0 0 0 .134-.263.942.942 0 0 0 .049-.316.937.937 0 0 0-.21-.619ZM24.734 34.146a.28.28 0 0 1-.062.015c-.018.004-.036.004-.049.004a.28.28 0 0 1-.094-.015.353.353 0 0 1-.084-.044.283.283 0 0 1-.063-.075.276.276 0 0 1-.022-.104c0-.096.058-.163.178-.204.143-.044.272-.096.383-.159.111-.067.218-.145.316-.234a.309.309 0 0 1 .299-.063.291.291 0 0 1 .155.13.2.2 0 0 1 .023.093l-.005 2.111c0 .148-.089.223-.267.223-.183 0-.272-.075-.272-.223v-1.633a2.55 2.55 0 0 1-.213.1 4.329 4.329 0 0 1-.223.078ZM28.403 33.256c.339 0 .624.137.855.408.21.252.316.546.316.879 0 .175-.031.342-.093.498a1.303 1.303 0 0 1-.249.408 1.214 1.214 0 0 1-.374.278c-.143.067-.294.1-.455.1-.164 0-.316-.033-.458-.1a1.202 1.202 0 0 1-.374-.278 1.337 1.337 0 0 1-.339-.906c0-.17.027-.326.076-.475.053-.144.134-.282.236-.404.111-.13.24-.23.387-.301.143-.07.303-.107.472-.107Zm.414.668c-.124-.145-.262-.215-.414-.215a.49.49 0 0 0-.245.066.613.613 0 0 0-.195.182.963.963 0 0 0-.188.586c0 .112.018.216.049.316.032.1.076.189.134.263a.673.673 0 0 0 .2.182.476.476 0 0 0 .49 0 .595.595 0 0 0 .196-.182.816.816 0 0 0 .134-.263.942.942 0 0 0 .049-.316.937.937 0 0 0-.21-.619Z" style="fill:#fff;fill-rule:nonzero"/><path d="M11.286 11.386h2.247v2.247h-2.247z" style="fill:#077fbb" transform="translate(-.402 -.523) scale(1.04182)"/><path d="M9.115 11.386h2.247v2.247H9.115z" style="fill:#ff0056" transform="translate(-.31 -.523) scale(1.04182)"/><path d="M13.458 11.386h2.247v2.247h-2.247z" style="fill:#00abbf" transform="translate(-.492 -.523) scale(1.04182)"/><path d="M15.629 11.386h2.247v2.247h-2.247z" style="fill:#06efec" transform="translate(-.583 -.523) scale(1.04182)"/><path d="M17.801 11.386h2.247v2.247h-2.247z" style="fill:#0ee4e4" transform="translate(-.674 -.523) scale(1.04182)"/><path d="M19.973 11.386h2.247v2.247h-2.247z" style="fill:#00bcc2" transform="translate(-.765 -.523) scale(1.04182)"/><path d="M22.144 11.386h2.247v2.247h-2.247z" style="fill:#0db1bb" transform="translate(-.856 -.523) scale(1.04182)"/><path d="M24.316 11.386h2.247v2.247h-2.247z" style="fill:#821a65" transform="translate(-.947 -.523) scale(1.04182)"/><path d="M26.487 11.386h2.247v2.247h-2.247z" style="fill:#3e0345" transform="translate(-1.037 -.523) scale(1.04182)"/><path d="M11.286 9.214h2.247v2.247h-2.247z" style="fill:#09679a" transform="translate(-.402 -.432) scale(1.04182)"/><path d="M13.458 9.214h2.247v2.247h-2.247z" style="fill:#08a0b7" transform="translate(-.492 -.432) scale(1.04182)"/><path d="M15.629 9.214h2.247v2.247h-2.247z" style="fill:#07e5e8" transform="translate(-.583 -.432) scale(1.04182)"/><path d="M17.801 9.214h2.247v2.247h-2.247z" style="fill:#0fe7e4" transform="translate(-.674 -.432) scale(1.04182)"/><path d="M19.973 9.214h2.247v2.247h-2.247z" style="fill:#05c1c2" transform="translate(-.765 -.432) scale(1.04182)"/><path d="M22.144 9.214h2.247v2.247h-2.247z" style="fill:#09acbd" transform="translate(-.856 -.432) scale(1.04182)"/><path d="M15.629 7.042h2.247v2.247h-2.247z" style="fill:#0cc0cf" transform="translate(-.583 -.342) scale(1.04182)"/><path d="M17.801 7.042h2.247v2.247h-2.247z" style="fill:#0ac5ca" transform="translate(-.674 -.342) scale(1.04182)"/><path d="M19.973 7.042h2.247v2.247h-2.247z" style="fill:#07afb2" transform="translate(-.765 -.342) scale(1.04182)"/><path d="M22.144 7.042h2.247v2.247h-2.247z" style="fill:#06b4bc" transform="translate(-.856 -.342) scale(1.04182)"/><path d="M24.316 9.214h2.247v2.247h-2.247z" style="fill:#048db2" transform="translate(-.947 -.432) scale(1.04182)"/><path d="M26.487 9.214h2.247v2.247h-2.247z" style="fill:#3e064f" transform="translate(-1.037 -.432) scale(1.04182)"/><path d="M28.659 11.386h2.247v2.247h-2.247z" style="fill:#30033a" transform="translate(-1.128 -.523) scale(1.04182)"/><path d="M11.286 13.557h2.247v2.247h-2.247z" style="fill:#a04e7e" transform="translate(-.402 -.614) scale(1.04182)"/><path d="M9.115 13.557h2.247v2.247H9.115z" style="fill:#ff0957" transform="translate(-.31 -.614) scale(1.04182)"/><path d="M13.458 13.557h2.247v2.247h-2.247z" style="fill:#01a8bb" transform="translate(-.492 -.614) scale(1.04182)"/><path d="M15.629 13.557h2.247v2.247h-2.247z" style="fill:#11e8eb" transform="translate(-.583 -.614) scale(1.04182)"/><path d="M17.801 13.557h2.247v2.247h-2.247z" style="fill:#16e2e3" transform="translate(-.674 -.614) scale(1.04182)"/><path d="M19.973 13.557h2.247v2.247h-2.247z" style="fill:#04b4c1" transform="translate(-.765 -.614) scale(1.04182)"/><path d="M22.144 13.557h2.247v2.247h-2.247z" style="fill:#861c67" transform="translate(-.856 -.614) scale(1.04182)"/><path d="M24.316 13.557h2.247v2.247h-2.247z" style="fill:#83155e" transform="translate(-.947 -.614) scale(1.04182)"/><path d="M26.487 13.557h2.247v2.247h-2.247z" style="fill:#430e54" transform="translate(-1.037 -.614) scale(1.04182)"/><path d="M28.659 13.557h2.247v2.247h-2.247z" style="fill:#3f0349" transform="translate(-1.128 -.614) scale(1.04182)"/><path d="M11.286 15.729h2.247v2.247h-2.247z" style="fill:#ff215c" transform="translate(-.402 -.705) scale(1.04182)"/><path d="M9.115 15.729h2.247v2.247H9.115z" style="fill:#ff0e5f" transform="translate(-.31 -.705) scale(1.04182)"/><path d="M13.458 15.729h2.247v2.247h-2.247z" style="fill:#ff795c" transform="translate(-.492 -.705) scale(1.04182)"/><path d="M15.629 15.729h2.247v2.247h-2.247z" style="fill:#0feaee" transform="translate(-.583 -.705) scale(1.04182)"/><path d="M17.801 15.729h2.247v2.247h-2.247z" style="fill:#89dde7" transform="translate(-.674 -.705) scale(1.04182)"/><path d="M19.973 15.729h2.247v2.247h-2.247z" style="fill:#ff2c66" transform="translate(-.765 -.705) scale(1.04182)"/><path d="M22.144 15.729h2.247v2.247h-2.247z" style="fill:#870d64" transform="translate(-.856 -.705) scale(1.04182)"/><path d="M24.316 15.729h2.247v2.247h-2.247z" style="fill:#ff2360" transform="translate(-.947 -.705) scale(1.04182)"/><path d="M26.487 15.729h2.247v2.247h-2.247z" style="fill:#a70069" transform="translate(-1.037 -.705) scale(1.04182)"/><path d="M28.659 15.729h2.247v2.247h-2.247z" style="fill:#450041" transform="translate(-1.128 -.705) scale(1.04182)"/><path d="M11.286 17.9h2.247v2.247h-2.247z" style="fill:#ff205e" transform="translate(-.402 -.796) scale(1.04182)"/><path d="M9.115 17.9h2.247v2.247H9.115z" style="fill:#ff095a" transform="translate(-.31 -.796) scale(1.04182)"/><path d="M13.458 17.9h2.247v2.247h-2.247z" style="fill:#ff755e" transform="translate(-.492 -.796) scale(1.04182)"/><path d="M15.629 17.9h2.247v2.247h-2.247z" style="fill:#ff3565" transform="translate(-.583 -.796) scale(1.04182)"/><path d="M17.801 17.9h2.247v2.247h-2.247z" style="fill:#fe2e62" transform="translate(-.674 -.796) scale(1.04182)"/><path d="M19.973 17.9h2.247v2.247h-2.247z" style="fill:#fe2b62" transform="translate(-.765 -.796) scale(1.04182)"/><path d="M22.144 17.9h2.247v2.247h-2.247z" style="fill:#81025b" transform="translate(-.856 -.796) scale(1.04182)"/><path d="M24.316 17.9h2.247v2.247h-2.247z" style="fill:#ff225f" transform="translate(-.947 -.796) scale(1.04182)"/><path d="M26.487 17.9h2.247v2.247h-2.247z" style="fill:#9c0061" transform="translate(-1.037 -.796) scale(1.04182)"/><path d="M28.659 17.9h2.247v2.247h-2.247z" style="fill:#3c0038" transform="translate(-1.128 -.796) scale(1.04182)"/><path d="M11.286 20.072h2.247v2.247h-2.247z" style="fill:#fe195c" transform="translate(-.402 -.886) scale(1.04182)"/><path d="M9.115 20.072h2.247v2.247H9.115z" style="fill:#ff304d" transform="translate(-.31 -.886) scale(1.04182)"/><path d="M13.458 20.072h2.247v2.247h-2.247z" style="fill:#ff6d5b" transform="translate(-.492 -.886) scale(1.04182)"/><path d="M15.629 20.072h2.247v2.247h-2.247z" style="fill:#ffab6f" transform="translate(-.583 -.886) scale(1.04182)"/><path d="M17.801 20.072h2.247v2.247h-2.247z" style="fill:#ff7277" transform="translate(-.674 -.886) scale(1.04182)"/><path d="M19.973 20.072h2.247v2.247h-2.247z" style="fill:#fe2460" transform="translate(-.765 -.886) scale(1.04182)"/><path d="M22.144 20.072h2.247v2.247h-2.247z" style="fill:#ff205d" transform="translate(-.856 -.886) scale(1.04182)"/><path d="M24.316 20.072h2.247v2.247h-2.247z" style="fill:#fe1c5b" transform="translate(-.947 -.886) scale(1.04182)"/><path d="M26.487 20.072h2.247v2.247h-2.247z" style="fill:#ff0660" transform="translate(-1.037 -.886) scale(1.04182)"/><path d="M28.659 20.072h2.247v2.247h-2.247z" style="fill:#510035" transform="translate(-1.128 -.886) scale(1.04182)"/><path d="M11.286 22.244h2.247v2.247h-2.247z" style="fill:#ff8921" transform="translate(-.402 -.977) scale(1.04182)"/><path d="M9.115 22.244h2.247v2.247H9.115z" style="fill:#ff015b" transform="translate(-.31 -.977) scale(1.04182)"/><path d="M13.458 22.244h2.247v2.247h-2.247z" style="fill:#ffc36d" transform="translate(-.492 -.977) scale(1.04182)"/><path d="M15.629 22.244h2.247v2.247h-2.247z" style="fill:#ffcd67" transform="translate(-.583 -.977) scale(1.04182)"/><path d="M17.801 22.244h2.247v2.247h-2.247z" style="fill:#ffc37d" transform="translate(-.674 -.977) scale(1.04182)"/><path d="M19.973 22.244h2.247v2.247h-2.247z" style="fill:#ff8c7c" transform="translate(-.765 -.977) scale(1.04182)"/><path d="M22.144 22.244h2.247v2.247h-2.247z" style="fill:#ff1560" transform="translate(-.856 -.977) scale(1.04182)"/><path d="M24.316 22.244h2.247v2.247h-2.247z" style="fill:#fd5957" transform="translate(-.947 -.977) scale(1.04182)"/><path d="M26.487 22.244h2.247v2.247h-2.247z" style="fill:#fe2a5d" transform="translate(-1.037 -.977) scale(1.04182)"/><path d="M28.659 22.244h2.247v2.247h-2.247z" style="fill:#fa0256" transform="translate(-1.128 -.977) scale(1.04182)"/><path d="M30.831 15.729h2.247v2.247h-2.247z" style="fill:#470042" transform="translate(-1.219 -.705) scale(1.04182)"/><path d="M30.831 17.9h2.247v2.247h-2.247z" style="fill:#450043" transform="translate(-1.219 -.796) scale(1.04182)"/><path d="M30.831 20.072h2.247v2.247h-2.247z" style="fill:#40033f" transform="translate(-1.219 -.886) scale(1.04182)"/><path d="M30.831 22.244h2.247v2.247h-2.247z" style="fill:#f1015a" transform="translate(-1.219 -.977) scale(1.04182)"/><path d="M11.286 24.415h2.247v2.247h-2.247z" style="fill:#f78403" transform="translate(-.402 -1.068) scale(1.04182)"/><path d="M9.115 24.415h2.247v2.247H9.115z" style="fill:#f98200" transform="translate(-.31 -1.068) scale(1.04182)"/><path d="M13.458 24.415h2.247v2.247h-2.247z" style="fill:#fbbd4c" transform="translate(-.492 -1.068) scale(1.04182)"/><path d="M15.629 24.415h2.247v2.247h-2.247z" style="fill:#fcc352" transform="translate(-.583 -1.068) scale(1.04182)"/><path d="M17.801 24.415h2.247v2.247h-2.247z" style="fill:#fcc03b" transform="translate(-.674 -1.068) scale(1.04182)"/><path d="M19.973 24.415h2.247v2.247h-2.247z" style="fill:#fcbf02" transform="translate(-.765 -1.068) scale(1.04182)"/><path d="M22.144 24.415h2.247v2.247h-2.247z" style="fill:#e6bb48" transform="translate(-.856 -1.068) scale(1.04182)"/><path d="M24.316 24.415h2.247v2.247h-2.247z" style="fill:#22e2e7" transform="translate(-.947 -1.068) scale(1.04182)"/><path d="M26.487 24.415h2.247v2.247h-2.247z" style="fill:#ff125a" transform="translate(-1.037 -1.068) scale(1.04182)"/><path d="M28.659 24.415h2.247v2.247h-2.247z" style="fill:#fe6e18" transform="translate(-1.128 -1.068) scale(1.04182)"/><path d="M11.286 26.587h2.247v2.247h-2.247z" style="fill:#0c9bdf" transform="translate(-.402 -1.159) scale(1.04182)"/><path d="M9.115 26.587h2.247v2.247H9.115z" style="fill:#f37400" transform="translate(-.31 -1.159) scale(1.04182)"/><path d="M13.458 26.587h2.247v2.247h-2.247z" style="fill:#18e3e9" transform="translate(-.492 -1.159) scale(1.04182)"/><path d="M15.629 26.587h2.247v2.247h-2.247z" style="fill:#feb439" transform="translate(-.583 -1.159) scale(1.04182)"/><path d="M17.801 26.587h2.247v2.247h-2.247z" style="fill:#ffb00e" transform="translate(-.674 -1.159) scale(1.04182)"/><path d="M19.973 26.587h2.247v2.247h-2.247z" style="fill:#ffac00" transform="translate(-.765 -1.159) scale(1.04182)"/><path d="M22.144 26.587h2.247v2.247h-2.247z" style="fill:#16e0e0" transform="translate(-.856 -1.159) scale(1.04182)"/><path d="M24.316 26.587h2.247v2.247h-2.247z" style="fill:#18e2f0" transform="translate(-.947 -1.159) scale(1.04182)"/><path d="M26.487 26.587h2.247v2.247h-2.247z" style="fill:#0792e3" transform="translate(-1.037 -1.159) scale(1.04182)"/><path d="M28.659 26.587h2.247v2.247h-2.247z" style="fill:#d37424" transform="translate(-1.128 -1.159) scale(1.04182)"/><path d="M11.286 28.758h2.247v2.247h-2.247z" style="fill:#0073ce" transform="translate(-.402 -1.25) scale(1.04182)"/><path d="M13.458 28.758h2.247v2.247h-2.247z" style="fill:#03a9e5" transform="translate(-.492 -1.25) scale(1.04182)"/><path d="M15.629 28.758h2.247v2.247h-2.247z" style="fill:#f7a000" transform="translate(-.583 -1.25) scale(1.04182)"/><path d="M17.801 28.758h2.247v2.247h-2.247z" style="fill:#71c996" transform="translate(-.674 -1.25) scale(1.04182)"/><path d="M19.973 28.758h2.247v2.247h-2.247z" style="fill:#13cde2" transform="translate(-.765 -1.25) scale(1.04182)"/><path d="M22.144 28.758h2.247v2.247h-2.247z" style="fill:#0296d4" transform="translate(-.856 -1.25) scale(1.04182)"/><path d="M24.316 28.758h2.247v2.247h-2.247z" style="fill:#0080d1" transform="translate(-.947 -1.25) scale(1.04182)"/><path d="M26.487 28.758h2.247v2.247h-2.247z" style="fill:#0069c9" transform="translate(-1.037 -1.25) scale(1.04182)"/><path d="M15.629 30.93h2.247v2.247h-2.247z" style="fill:#09b2f5" transform="translate(-.583 -1.34) scale(1.04182)"/><path d="M17.801 30.93h2.247v2.247h-2.247z" style="fill:#09a8ea" transform="translate(-.674 -1.34) scale(1.04182)"/><path d="M19.973 30.93h2.247v2.247h-2.247z" style="fill:#098fe8" transform="translate(-.765 -1.34) scale(1.04182)"/><path d="M22.144 30.93h2.247v2.247h-2.247z" style="fill:#077dd7" transform="translate(-.856 -1.34) scale(1.04182)"/><path d="M6.943 15.729H9.19v2.247H6.943z" style="fill:#bb0653" transform="translate(-.22 -.705) scale(1.04182)"/><path d="M6.943 17.9H9.19v2.247H6.943z" style="fill:#c90255" transform="translate(-.22 -.796) scale(1.04182)"/><path d="M6.943 20.072H9.19v2.247H6.943z" style="fill:#ce015c" transform="translate(-.22 -.886) scale(1.04182)"/><path d="M6.943 22.244H9.19v2.247H6.943z" style="fill:#cb0658" transform="translate(-.22 -.977) scale(1.04182)"/><circle cx="20.126" cy="20.136" r="13.166" style="fill:none;stroke:#fff;stroke-width:1.91px"/><circle cx="20.088" cy="20.133" r="11.579" style="fill:none;stroke:#0c1727;stroke-width:1.91px"/><path d="m31.403 27.981 7.315 6.892s1.499 1.449-.276 3.338c-1.874 1.993-3.288.677-3.288.677l-7.427-7.012 3.676-3.895Z" style="fill:#0c1727;stroke:#fff;stroke-width:1.31px"/><path d="m31.446 30.369-2.731-2.576-1.223 1.296 2.731 2.576 1.223-1.296Z" style="fill:#0c1727"/><path d="M22.646 12.325c1.275.337 2.754 1.331 3.528 2.484" style="fill:none;stroke:#fff;stroke-width:1.31px"/></svg>